<svg id="Layer_1" xmlns="http://www.w3.org/2000/svg" viewBox="0 0 269.3 71.9"><style>.st0{fill:#471E02;} .st1{fill:#FFFFFF;}</style><path class="st0" d="M43.9 34.7c-.1-7.9 6.5-11.8 6.8-12-3.7-5.4-9.5-6.2-11.5-6.2-4.8-.5-9.5 2.9-12 2.9s-6.3-2.8-10.4-2.8c-5.3.1-10.2 3.1-12.9 7.9-5.6 9.7-1.4 23.9 3.9 31.7 2.7 3.8 5.8 8.1 9.9 7.9 4-.2 5.5-2.6 10.3-2.6 4.8 0 6.2 2.6 10.4 2.5 4.3-.1 7-3.8 9.6-7.7 3.1-4.4 4.3-8.7 4.4-8.9-.1-.1-8.4-3.2-8.5-12.7zM36.1 11.3c2.2-2.7 3.6-6.4 3.2-10.1-3.1.1-7 2.2-9.3 4.8-2 2.3-3.8 6.1-3.3 9.7 3.5.3 7.1-1.7 9.4-4.4zM101.9 63.5h-5.6l-3.1-9.6H82.6l-2.9 9.6h-5.4l10.5-32.8h6.5l10.6 32.8zm-9.6-13.6l-2.8-8.6c-.3-.9-.8-2.9-1.7-6.2h-.1c-.3 1.4-.8 3.5-1.6 6.2l-2.7 8.6h8.9zM129 51.4c0 4-1.1 7.2-3.3 9.5-1.9 2.1-4.4 3.1-7.2 3.1-3.1 0-5.3-1.1-6.7-3.4h-.1V73h-5.3V47.7c0-2.5-.1-5.1-.2-7.8h4.6l.3 3.7h.1c1.8-2.8 4.4-4.2 8-4.2 2.8 0 5.1 1.1 7 3.3 1.9 2.2 2.8 5.1 2.8 8.7zm-5.4.2c0-2.3-.5-4.2-1.6-5.7-1.1-1.6-2.7-2.3-4.6-2.3-1.3 0-2.5.4-3.5 1.3-1.1.9-1.7 2-2.1 3.4-.2.6-.2 1.2-.2 1.6v3.9c0 1.7.5 3.2 1.6 4.4 1.1 1.2 2.4 1.8 4.1 1.8 2 0 3.5-.8 4.6-2.3 1.2-1.6 1.7-3.6 1.7-6.1zM156.2 51.4c0 4-1.1 7.2-3.3 9.5-1.9 2.1-4.4 3.1-7.2 3.1-3.1 0-5.3-1.1-6.7-3.4h-.1V73h-5.3V47.7c0-2.5-.1-5.1-.2-7.8h4.6l.3 3.7h.1c1.7-2.8 4.4-4.2 8-4.2 2.8 0 5.1 1.1 7 3.3 1.8 2.2 2.8 5.1 2.8 8.7zm-5.4.2c0-2.3-.5-4.2-1.6-5.7-1.1-1.6-2.7-2.3-4.6-2.3-1.3 0-2.5.4-3.5 1.3-1.1.9-1.7 2-2.1 3.4-.2.6-.2 1.2-.2 1.6v3.9c0 1.7.5 3.2 1.6 4.4 1.1 1.2 2.4 1.8 4.1 1.8 2 0 3.5-.8 4.6-2.3 1.2-1.6 1.7-3.6 1.7-6.1zM186.5 54.3c0 2.8-1 5.1-2.9 6.8-2.1 1.9-5.1 2.9-8.9 2.9-3.5 0-6.4-.7-8.5-2l1.2-4.4c2.3 1.4 4.8 2.1 7.6 2.1 2 0 3.5-.4 4.6-1.3 1.1-.9 1.6-2.1 1.6-3.6 0-1.3-.5-2.5-1.4-3.4-.9-.9-2.4-1.8-4.5-2.5-5.7-2.1-8.6-5.3-8.6-9.4 0-2.7 1-4.9 3-6.6 2-1.7 4.7-2.6 8-2.6 3 0 5.5.5 7.4 1.6l-1.3 4.3c-1.8-1-3.9-1.5-6.3-1.5-1.8 0-3.3.5-4.3 1.4-.9.8-1.3 1.8-1.3 3 0 1.3.5 2.4 1.5 3.2.9.8 2.5 1.6 4.8 2.5 2.8 1.1 4.9 2.5 6.2 4 1.5 1.4 2.1 3.3 2.1 5.5zM203.9 43.8h-5.8v11.5c0 2.9 1 4.4 3.1 4.4.9 0 1.7-.1 2.3-.2l.1 4c-1 .4-2.4.6-4.1.6-2.1 0-3.7-.6-4.9-1.9-1.2-1.3-1.8-3.4-1.8-6.4v-12h-3.4v-3.9h3.4v-4.3L198 34v5.9h5.8v3.9zM230 51.5c0 3.6-1 6.6-3.1 8.9-2.2 2.4-5.1 3.6-8.7 3.6-3.5 0-6.2-1.1-8.3-3.5-2.1-2.3-3.1-5.2-3.1-8.7 0-3.7 1.1-6.7 3.2-9s5-3.5 8.6-3.5c3.5 0 6.3 1.1 8.4 3.5 2 2.3 3 5.2 3 8.7zm-5.4.2c0-2.2-.5-4-1.4-5.6-1.1-1.9-2.7-2.8-4.7-2.8-2.1 0-3.7.9-4.8 2.8-.9 1.6-1.4 3.5-1.4 5.7s.5 4 1.4 5.6c1.1 1.9 2.7 2.8 4.8 2.8 2 0 3.6-1 4.7-2.9.9-1.5 1.4-3.4 1.4-5.6zM247.1 44.5c-.5-.1-1.1-.1-1.7-.1-1.8 0-3.3.7-4.3 2.1-.9 1.2-1.3 2.8-1.3 4.7v12.4h-5.2V47.4c0-2.7-.1-5.2-.2-7.4h4.6l.2 4.5h.1c.6-1.6 1.4-2.8 2.6-3.7 1.2-.8 2.4-1.3 3.8-1.3.5 0 .9 0 1.3.1v4.9zM270.6 50.6c0 .9-.1 1.7-.2 2.4h-15.8c.1 2.3.8 4.1 2.3 5.4 1.3 1.1 3 1.7 5.2 1.7 2.3 0 4.5-.4 6.4-1.1l.8 3.6c-2.2 1-4.9 1.5-7.9 1.5-3.7 0-6.5-1.1-8.6-3.2-2.1-2.2-3.1-5-3.1-8.7 0-3.6 1-6.5 2.9-8.9 2-2.5 4.8-3.8 8.3-3.8 3.4 0 6 1.3 7.7 3.8 1.3 1.9 2 4.3 2 7.3zm-5-1.4c0-1.6-.3-2.9-1-4-.9-1.5-2.3-2.2-4.2-2.2-1.7 0-3.1.7-4.2 2.1-.9 1.1-1.4 2.5-1.6 4.1h11z"/><g><path class="st0" d="M90.5 10.6c0 2.9-.9 5.1-2.6 6.5-1.6 1.4-3.9 2-6.9 2-1.5 0-2.7-.1-3.8-.2V3.1c1.4-.2 2.8-.3 4.4-.3 2.8 0 4.9.6 6.4 1.8 1.7 1.4 2.5 3.4 2.5 6zm-2.7.1c0-1.9-.5-3.3-1.5-4.3s-2.4-1.5-4.4-1.5c-.8 0-1.5.1-2.1.2v12c.3 0 .9.1 1.7.1 2 0 3.5-.5 4.6-1.6 1.2-1.2 1.7-2.8 1.7-4.9zM105 13.1c0 1.8-.5 3.2-1.5 4.4-1.1 1.2-2.5 1.8-4.3 1.8-1.7 0-3.1-.6-4.1-1.7-1-1.1-1.5-2.6-1.5-4.3 0-1.8.5-3.3 1.6-4.4 1-1.1 2.4-1.7 4.2-1.7 1.7 0 3.1.6 4.1 1.7 1 1.1 1.5 2.5 1.5 4.2zm-2.7.1c0-1.1-.2-2-.7-2.8-.5-.9-1.3-1.4-2.3-1.4-1 0-1.8.5-2.4 1.4-.5.8-.7 1.7-.7 2.8 0 1.1.2 2 .7 2.8.6.9 1.3 1.4 2.3 1.4 1 0 1.8-.5 2.3-1.4.6-.8.8-1.7.8-2.8zM124.3 7.4L120.7 19h-2.4l-1.5-5c-.4-1.3-.7-2.5-.9-3.8-.2 1.3-.5 2.5-.9 3.8l-1.6 5H111l-3.4-11.6h2.7l1.3 5.5c.3 1.3.6 2.5.8 3.7.2-1 .5-2.2 1-3.7l1.6-5.5h2.1l1.6 5.4c.4 1.3.7 2.6.9 3.8h.1c.2-1.2.4-2.5.8-3.8l1.4-5.4h2.4zM137.7 19h-2.6v-6.6c0-2-.8-3.1-2.3-3.1-.8 0-1.4.3-1.9.8-.5.6-.7 1.2-.7 2V19h-2.6v-8.3c0-1 0-2.1-.1-3.3h2.3l.1 1.8h.1c.3-.6.7-1 1.3-1.4.7-.4 1.5-.7 2.3-.7 1.1 0 2 .3 2.7 1.1.9.9 1.3 2.1 1.3 3.8v7zM144.8 19h-2.6V2.1h2.6V19zM160 13.1c0 1.8-.5 3.2-1.5 4.4-1.1 1.2-2.5 1.8-4.3 1.8-1.7 0-3.1-.6-4.1-1.7-1-1.1-1.5-2.6-1.5-4.3 0-1.8.5-3.3 1.6-4.4 1-1.1 2.4-1.7 4.2-1.7 1.7 0 3.1.6 4.1 1.7 1 1.1 1.5 2.5 1.5 4.2zm-2.7.1c0-1.1-.2-2-.7-2.8-.5-.9-1.3-1.4-2.3-1.4-1 0-1.8.5-2.4 1.4-.5.8-.7 1.7-.7 2.8 0 1.1.2 2 .7 2.8.6.9 1.3 1.4 2.3 1.4 1 0 1.8-.5 2.3-1.4.6-.8.8-1.7.8-2.8zM172.5 19h-2.3l-.2-1.3h-.1c-.8 1.1-1.9 1.6-3.4 1.6-1.1 0-2-.4-2.7-1.1-.6-.6-.9-1.4-.9-2.4 0-1.4.6-2.5 1.8-3.2 1.2-.7 2.9-1.1 5-1.1v-.2c0-1.5-.8-2.3-2.4-2.3-1.1 0-2.2.3-3 .9l-.5-1.7c1.1-.7 2.4-1 4-1 3 0 4.6 1.6 4.6 4.8v4.3c-.1 1.1 0 2 .1 2.7zm-2.7-4v-1.8c-2.8 0-4.3.7-4.3 2.3 0 .6.2 1.1.5 1.4.3.3.8.5 1.3.5.6 0 1.1-.2 1.6-.5.5-.4.8-.8.9-1.4V15zM187.2 19h-2.3l-.1-1.9h-.1c-.7 1.4-2 2.1-3.7 2.1-1.4 0-2.6-.5-3.5-1.6-.9-1.1-1.4-2.5-1.4-4.3 0-1.9.5-3.4 1.5-4.6 1-1.1 2.2-1.6 3.6-1.6 1.6 0 2.6.5 3.3 1.6V2.1h2.6v13.8c0 1.1 0 2.2.1 3.1zm-2.7-4.9v-1.9c0-.3 0-.6-.1-.8-.1-.6-.5-1.1-.9-1.6-.5-.4-1.1-.6-1.7-.6-1 0-1.7.4-2.3 1.1-.5.8-.8 1.7-.8 2.9 0 1.1.3 2.1.8 2.8.6.8 1.3 1.1 2.3 1.1.8 0 1.5-.3 2-1 .4-.4.7-1.1.7-2zM209.2 13.1c0 1.8-.5 3.2-1.5 4.4-1.1 1.2-2.5 1.8-4.3 1.8-1.7 0-3.1-.6-4.1-1.7-1-1.1-1.5-2.6-1.5-4.3 0-1.8.5-3.3 1.6-4.4 1-1.1 2.4-1.7 4.2-1.7 1.7 0 3.1.6 4.1 1.7 1 1.1 1.5 2.5 1.5 4.2zm-2.7.1c0-1.1-.2-2-.7-2.8-.5-.9-1.3-1.4-2.3-1.4-1 0-1.8.5-2.4 1.4-.5.8-.7 1.7-.7 2.8 0 1.1.2 2 .7 2.8.6.9 1.3 1.4 2.3 1.4 1 0 1.8-.5 2.3-1.4.6-.8.8-1.7.8-2.8zM223.1 19h-2.6v-6.6c0-2-.8-3.1-2.3-3.1-.8 0-1.4.3-1.9.8-.5.6-.7 1.2-.7 2V19H213v-8.3c0-1 0-2.1-.1-3.3h2.3l.1 1.8h.1c.3-.6.8-1 1.3-1.4.7-.4 1.5-.7 2.3-.7 1.1 0 2 .3 2.7 1.1.9.9 1.3 2.1 1.3 3.8v7zM240.5 9.4h-2.8V15c0 1.4.5 2.1 1.5 2.1.5 0 .8 0 1.1-.1l.1 2c-.5.2-1.2.3-2 .3-1 0-1.8-.3-2.4-.9-.6-.6-.9-1.7-.9-3.1V9.4h-1.7v-2h1.7V5.3l2.5-.8v2.9h2.8v2zM254.1 19h-2.6v-6.6c0-2.1-.8-3.1-2.3-3.1-1.2 0-2 .6-2.5 1.8-.1.3-.1.6-.1.9v7H244V2.1h2.6v7c.8-1.3 2-1.9 3.5-1.9 1.1 0 2 .3 2.7 1.1.9.9 1.3 2.2 1.3 3.9V19zM268.2 12.7c0 .5 0 .9-.1 1.2h-7.7c0 1.1.4 2 1.1 2.6.7.5 1.5.8 2.5.8 1.1 0 2.2-.2 3.1-.5l.4 1.8c-1.1.5-2.4.7-3.9.7-1.8 0-3.2-.5-4.2-1.6s-1.5-2.5-1.5-4.3c0-1.8.5-3.2 1.4-4.4 1-1.2 2.4-1.9 4.1-1.9 1.7 0 2.9.6 3.8 1.9.7 1 1 2.2 1 3.7zm-2.4-.7c0-.8-.1-1.4-.5-2-.4-.7-1.1-1.1-2.1-1.1-.8 0-1.5.3-2.1 1.1-.4.6-.7 1.2-.8 2h5.5z"/></g><g><path class="st1" d="M42.7 33.4c-.1-7.9 6.5-11.8 6.8-12C45.8 16 40 15.3 38 15.2c-4.8-.5-9.5 2.9-12 2.9s-6.3-2.8-10.4-2.8c-5.3.1-10.2 3.1-12.9 7.9-5.6 9.7-1.4 23.9 3.9 31.7 2.7 3.8 5.8 8.1 9.9 7.9 4-.2 5.5-2.6 10.3-2.6 4.8 0 6.2 2.6 10.4 2.5 4.3-.1 7-3.8 9.6-7.7 3.1-4.4 4.3-8.7 4.4-8.9-.2 0-8.4-3.2-8.5-12.7zM34.8 10.1C37 7.4 38.4 3.7 38 0c-3.1.1-7 2.2-9.3 4.8-2 2.3-3.8 6.1-3.3 9.7 3.6.2 7.2-1.8 9.4-4.4zM100.6 62.3H95l-3.1-9.6H81.3l-2.9 9.6H73l10.5-32.8H90l10.6 32.8zM91 48.6L88.2 40c-.3-.9-.8-2.9-1.7-6.2h-.1c-.3 1.4-.8 3.5-1.6 6.2l-2.7 8.6H91zM127.7 50.2c0 4-1.1 7.2-3.3 9.5-1.9 2.1-4.4 3.1-7.2 3.1-3.1 0-5.3-1.1-6.7-3.4h-.1v12.4h-5.3V46.4c0-2.5-.1-5.1-.2-7.8h4.6l.3 3.7h.1c1.8-2.8 4.4-4.2 8-4.2 2.8 0 5.1 1.1 7 3.3 1.9 2.3 2.8 5.2 2.8 8.8zm-5.3.2c0-2.3-.5-4.2-1.6-5.7-1.1-1.6-2.7-2.3-4.6-2.3-1.3 0-2.5.4-3.5 1.3-1.1.9-1.7 2-2.1 3.4-.2.6-.2 1.2-.2 1.6v3.9c0 1.7.5 3.2 1.6 4.4 1.1 1.2 2.4 1.8 4.1 1.8 2 0 3.5-.8 4.6-2.3 1.1-1.6 1.7-3.6 1.7-6.1zM154.9 50.2c0 4-1.1 7.2-3.3 9.5-1.9 2.1-4.4 3.1-7.2 3.1-3.1 0-5.3-1.1-6.7-3.4h-.1v12.4h-5.3V46.4c0-2.5-.1-5.1-.2-7.8h4.6l.3 3.7h.1c1.7-2.8 4.4-4.2 8-4.2 2.8 0 5.1 1.1 7 3.3 1.9 2.3 2.8 5.2 2.8 8.8zm-5.3.2c0-2.3-.5-4.2-1.6-5.7-1.1-1.6-2.7-2.3-4.6-2.3-1.3 0-2.5.4-3.5 1.3-1.1.9-1.7 2-2.1 3.4-.2.6-.2 1.2-.2 1.6v3.9c0 1.7.5 3.2 1.6 4.4 1.1 1.2 2.4 1.8 4.1 1.8 2 0 3.5-.8 4.6-2.3 1.1-1.6 1.7-3.6 1.7-6.1zM185.3 53.1c0 2.8-1 5.1-2.9 6.8-2.1 1.9-5.1 2.9-8.9 2.9-3.5 0-6.4-.7-8.5-2l1.2-4.4c2.3 1.4 4.8 2.1 7.6 2.1 2 0 3.5-.4 4.6-1.3 1.1-.9 1.6-2.1 1.6-3.6 0-1.3-.5-2.5-1.4-3.4-.9-.9-2.4-1.8-4.5-2.5-5.7-2.1-8.6-5.3-8.6-9.4 0-2.7 1-4.9 3-6.6 2-1.7 4.7-2.6 8-2.6 3 0 5.5.5 7.4 1.6l-1.3 4.3c-1.8-1-3.9-1.5-6.3-1.5-1.8 0-3.3.5-4.3 1.4-.9.8-1.3 1.8-1.3 3 0 1.3.5 2.4 1.5 3.2.9.8 2.5 1.6 4.8 2.5 2.8 1.1 4.9 2.5 6.2 4 1.4 1.3 2.1 3.2 2.1 5.5zM202.6 42.6h-5.8v11.5c0 2.9 1 4.4 3.1 4.4.9 0 1.7-.1 2.3-.2l.1 4c-1 .4-2.4.6-4.1.6-2.1 0-3.7-.6-4.9-1.9-1.2-1.3-1.8-3.4-1.8-6.4v-12h-3.4v-3.9h3.4v-4.3l5.2-1.6v5.9h5.8v3.9zM228.8 50.3c0 3.6-1 6.6-3.1 8.9-2.2 2.4-5.1 3.6-8.7 3.6-3.5 0-6.2-1.1-8.3-3.5-2.1-2.3-3.1-5.2-3.1-8.7 0-3.7 1.1-6.7 3.2-9s5-3.5 8.6-3.5c3.5 0 6.3 1.1 8.4 3.5 2 2.2 3 5.1 3 8.7zm-5.5.1c0-2.2-.5-4-1.4-5.6-1.1-1.9-2.7-2.8-4.7-2.8-2.1 0-3.7.9-4.8 2.8-.9 1.6-1.4 3.5-1.4 5.7s.5 4 1.4 5.6c1.1 1.9 2.7 2.8 4.8 2.8 2 0 3.6-1 4.7-2.9.9-1.5 1.4-3.4 1.4-5.6zM245.8 43.3c-.5-.1-1.1-.1-1.7-.1-1.8 0-3.3.7-4.3 2.1-.9 1.2-1.3 2.8-1.3 4.7v12.4h-5.2V46.2c0-2.7-.1-5.2-.2-7.4h4.6l.2 4.5h.1c.6-1.6 1.4-2.8 2.6-3.7 1.2-.8 2.4-1.3 3.8-1.3.5 0 .9 0 1.3.1v4.9zM269.3 49.3c0 .9-.1 1.7-.2 2.4h-15.8c.1 2.3.8 4.1 2.3 5.4 1.3 1.1 3 1.7 5.2 1.7 2.3 0 4.5-.4 6.4-1.1l.8 3.6c-2.2 1-4.9 1.5-7.9 1.5-3.7 0-6.5-1.1-8.6-3.2-2.1-2.2-3.1-5-3.1-8.7 0-3.6 1-6.5 2.9-8.9 2-2.5 4.8-3.8 8.3-3.8 3.4 0 6 1.3 7.7 3.8 1.3 1.9 2 4.4 2 7.3zm-5-1.3c0-1.6-.3-2.9-1-4-.9-1.5-2.3-2.2-4.2-2.2-1.7 0-3.1.7-4.2 2.1-.9 1.1-1.4 2.5-1.6 4.1h11z"/><g><path class="st1" d="M89.3 9.3c0 2.9-.9 5.1-2.6 6.5-1.6 1.4-3.9 2-6.9 2-1.5 0-2.7-.1-3.8-.2V1.9c1.4-.2 2.8-.3 4.4-.3 2.8 0 4.9.6 6.4 1.8 1.7 1.4 2.5 3.4 2.5 5.9zm-2.7.1c0-1.9-.5-3.3-1.5-4.3s-2.4-1.5-4.4-1.5c-.8 0-1.5.1-2.1.2v12c.3 0 .9.1 1.7.1 2 0 3.5-.5 4.6-1.6 1.1-1.2 1.7-2.8 1.7-4.9zM103.7 11.9c0 1.8-.5 3.2-1.5 4.4-1.1 1.2-2.5 1.8-4.3 1.8-1.7 0-3.1-.6-4.1-1.7-1-1.1-1.5-2.6-1.5-4.3 0-1.8.5-3.3 1.6-4.4 1-1.1 2.4-1.7 4.2-1.7 1.7 0 3.1.6 4.1 1.7 1 1 1.5 2.4 1.5 4.2zm-2.7.1c0-1.1-.2-2-.7-2.8-.5-.9-1.3-1.4-2.3-1.4-1 0-1.8.5-2.4 1.4-.4.8-.6 1.7-.6 2.8 0 1.1.2 2 .7 2.8.6.9 1.3 1.4 2.3 1.4 1 0 1.8-.5 2.3-1.4.5-.9.7-1.8.7-2.8zM123.1 6.2l-3.6 11.6h-2.4l-1.5-5c-.4-1.3-.7-2.5-.9-3.8-.2 1.3-.5 2.5-.9 3.8l-1.6 5h-2.4l-3.4-11.6h2.7l1.3 5.5c.3 1.3.6 2.5.8 3.7.2-1 .5-2.2 1-3.7l1.6-5.5h2.1l1.6 5.4c.4 1.3.7 2.6.9 3.8h.1c.2-1.2.4-2.5.8-3.8l1.4-5.4h2.4zM136.4 17.8h-2.6v-6.6c0-2-.8-3.1-2.3-3.1-.8 0-1.4.3-1.9.8-.5.6-.7 1.2-.7 2v6.9h-2.6V9.5c0-1 0-2.1-.1-3.3h2.3l.1 1.8h.1c.3-.6.7-1 1.3-1.4.7-.4 1.5-.7 2.3-.7 1.1 0 2 .3 2.7 1.1.9.9 1.3 2.1 1.3 3.8v7zM143.5 17.8H141V.8h2.6v17zM158.7 11.9c0 1.8-.5 3.2-1.5 4.4-1.1 1.2-2.5 1.8-4.3 1.8-1.7 0-3.1-.6-4.1-1.7-1-1.1-1.5-2.6-1.5-4.3 0-1.8.5-3.3 1.6-4.4 1-1.1 2.4-1.7 4.2-1.7 1.7 0 3.1.6 4.1 1.7 1 1 1.5 2.4 1.5 4.2zm-2.6.1c0-1.1-.2-2-.7-2.8-.5-.9-1.3-1.4-2.3-1.4-1 0-1.8.5-2.4 1.4-.5.8-.7 1.7-.7 2.8 0 1.1.2 2 .7 2.8.6.9 1.3 1.4 2.3 1.4 1 0 1.8-.5 2.3-1.4.5-.9.8-1.8.8-2.8zM171.2 17.8h-2.3l-.2-1.3h-.1c-.8 1.1-1.9 1.6-3.4 1.6-1.1 0-2-.4-2.7-1.1-.6-.6-.9-1.4-.9-2.4 0-1.4.6-2.5 1.8-3.2 1.2-.7 2.9-1.1 5-1.1v-.2c0-1.5-.8-2.3-2.4-2.3-1.1 0-2.2.3-3 .9l-.5-1.7c1.1-.7 2.4-1 4-1 3 0 4.6 1.6 4.6 4.8V15c0 1.2 0 2.1.1 2.8zm-2.6-4V12c-2.8 0-4.3.7-4.3 2.3 0 .6.2 1.1.5 1.4.3.3.8.5 1.3.5.6 0 1.1-.2 1.6-.5.5-.4.8-.8.9-1.4-.1-.2 0-.3 0-.5zM185.9 17.8h-2.3l-.1-1.9h-.1c-.7 1.4-2 2.1-3.7 2.1-1.4 0-2.6-.5-3.5-1.6-.9-1.1-1.4-2.5-1.4-4.3 0-1.9.5-3.4 1.5-4.6 1-1.1 2.2-1.6 3.6-1.6 1.6 0 2.6.5 3.3 1.6V.8h2.6v13.8c0 1.2 0 2.2.1 3.2zm-2.7-4.9V11c0-.3 0-.6-.1-.8-.1-.6-.5-1.1-.9-1.6-.5-.4-1.1-.6-1.7-.6-1 0-1.7.4-2.3 1.1-.5.8-.8 1.7-.8 2.9 0 1.1.3 2.1.8 2.8.6.8 1.3 1.1 2.3 1.1.8 0 1.5-.3 2-1 .5-.5.7-1.2.7-2zM208 11.9c0 1.8-.5 3.2-1.5 4.4-1.1 1.2-2.5 1.8-4.3 1.8-1.7 0-3.1-.6-4.1-1.7-1-1.1-1.5-2.6-1.5-4.3 0-1.8.5-3.3 1.6-4.4 1-1.1 2.4-1.7 4.2-1.7 1.7 0 3.1.6 4.1 1.7 1 1 1.5 2.4 1.5 4.2zm-2.7.1c0-1.1-.2-2-.7-2.8-.5-.9-1.3-1.4-2.3-1.4-1 0-1.8.5-2.4 1.4-.5.8-.7 1.7-.7 2.8 0 1.1.2 2 .7 2.8.6.9 1.3 1.4 2.3 1.4 1 0 1.8-.5 2.3-1.4.6-.9.8-1.8.8-2.8zM221.8 17.8h-2.6v-6.6c0-2-.8-3.1-2.3-3.1-.8 0-1.4.3-1.9.8-.5.6-.7 1.2-.7 2v6.9h-2.6V9.5c0-1 0-2.1-.1-3.3h2.3L214 8h.1c.3-.6.8-1 1.3-1.4.7-.4 1.5-.7 2.3-.7 1.1 0 2 .3 2.7 1.1.9.9 1.3 2.1 1.3 3.8v7zM239.2 8.1h-2.8v5.6c0 1.4.5 2.1 1.5 2.1.5 0 .8 0 1.1-.1l.1 2c-.5.2-1.2.3-2 .3-1 0-1.8-.3-2.4-.9-.6-.6-.9-1.7-.9-3.1V8.1h-1.7V6.2h1.7V4l2.5-.8v2.9h2.8v2zM252.9 17.8h-2.6v-6.6c0-2.1-.8-3.1-2.3-3.1-1.2 0-2 .6-2.5 1.8-.1.3-.1.6-.1.9v7h-2.6V.8h2.6v7c.8-1.3 2-1.9 3.5-1.9 1.1 0 2 .3 2.7 1.1.9.9 1.3 2.2 1.3 3.9v6.9zM267 11.4c0 .5 0 .9-.1 1.2h-7.7c0 1.1.4 2 1.1 2.6.7.5 1.5.8 2.5.8 1.1 0 2.2-.2 3.1-.5l.4 1.8c-1.1.5-2.4.7-3.9.7-1.8 0-3.2-.5-4.2-1.6s-1.5-2.5-1.5-4.3c0-1.8.5-3.2 1.4-4.4 1-1.2 2.4-1.9 4.1-1.9 1.7 0 2.9.6 3.8 1.9.6 1 1 2.3 1 3.7zm-2.5-.7c0-.8-.1-1.4-.5-2-.4-.7-1.1-1.1-2.1-1.1-.8 0-1.5.3-2.1 1.1-.4.6-.7 1.2-.8 2h5.5z"/></g></g></svg>