<svg id="Layer_1" xmlns="http://www.w3.org/2000/svg" viewBox="0 0 595.9 465"><style>.st0{fill:#F9C757;} .st1{fill:#E83C5A;} .st2{opacity:0.66;} .st3{fill:#FFFFFF;} .st4{fill:#D2254B;}</style><path class="st0" d="M555.4 299.5c.2-1.4.9-2.8 1.1-4.2.1-1.4-3.1-3-3-4.4 0-1.4.7-2.8.6-4.2-.1-1.4-2.5-2.5-2.7-4-.1-1.4-.4-2.6-.7-4-.3-1.4-.5-2.6-.8-4-.3-1.3 1.1-3.1.7-4.4-.4-1.3.8-3.2.3-4.5-.5-1.3-3.5-1.5-4.1-2.8-.6-1.3 1.4-3.8.8-5-.6-1.2-2.2-2-2.9-3.2-.7-1.2.6-3.7-.2-4.9-.7-1.1-4.2-.5-5.1-1.7-.8-1.1-1.8-2.1-2.7-3.2-.9-1.1-1.7-2.1-2.7-3.2-.9-1.1-.9-3-1.8-4s-1.6-2.3-2.7-3.4c-1-1-1.6-2.4-2.6-3.4s-1.6-2.5-2.7-3.4c-1.1-.9-3.7.1-4.8-.8-1.1-.9-3.5.1-4.6-.7-1.1-.8.1-5.1-1.1-5.8-1.2-.8-2.6-1.3-3.8-1.9-.3-.2-.7-.3-1.1-.4-1.1-.2-2.3-.1-3.2-.6-1.3-.6-2.6-1.1-3.8-1.7-1.3-.6-2.3-1.9-3.6-2.4-1.3-.5-3.7 2.4-5 2-1.3-.4-1.3-5.7-2.7-6-1.4-.3-3.1.7-4.5.4-1.4-.3-2.8-1.1-4.1-1.3-1.4-.2-2.9-.4-4.3-.5-1.4-.1-2.9 1.3-4.3 1.2-1.4-.1-2.8-.5-4.2-.5-1.4.1-2.9-1.3-4.3-1.2-1.4.1-2.8 1.4-4.1 1.6-1.4.2-2.6 2-4 2.2-1.4.2-2.3 2.4-3.7 2.7-1.4.3-2.9-.4-4.2-.1-1.4.3-2.5 1.4-3.8 1.8-1.3.4-3.8-2.9-5.1-2.5-1.3.4-1.3 4.9-2.5 5.4-1.3.5-3-.1-4.3.4-1.3.5-2.4 1.3-3.7 1.8-1.3.6-4.2-2.6-5.5-2-1.3.6-.7 4.9-2 5.5-1.3.6-2.7.9-3.9 1.5-1.3.7-2 2-3.2 2.7-1.2.7-3.4-.3-4.5.5-1.2.7-3.4-.2-4.6.6-1.2.7-1.6 2.7-2.8 3.5-1.2.8-2.3 1.5-3.5 2.3-1.2.8-1.1 3.4-2.2 4.2-1.2.8-2.3 1.6-3.4 2.4-1.1.9-2.6 1.2-3.6 2.1-1.2.9-3.2.5-4.3 1.3-1.1.9-3.3.5-4.3 1.3-.3.2-.5.5-.7.9-.5 1.1-.7 2.5-1.4 3.1-.9.8-1.8 1.2-2.7 1.7-.5-1-1.7-2.4-1.8-3.4-.1-.2 0-.4 0-.5.4-1.2 2.5-2 3-3.4.4-1.3 2.4-2.1 2.8-3.5.4-1.3-2.7-3.6-2.3-4.9.3-1.3 1.3-2.5 1.6-3.8.3-1.3-.6-2.9-.3-4.3.3-1.3 4.9-1.7 5.2-3.1.3-1.3.3-2.8.6-4.2.3-1.3 1.5-2.6 1.8-4 .2-1.3-1.1-3-.9-4.4.2-1.4 1.1-2.7 1.3-4.1.2-1.4-4.2-3.3-4.1-4.7.1-1.4 1-2.6 1.1-4 .1-1.4-.3-2.7-.2-4.1.1-1.4.1-2.7.1-4.1 0-1.4.6-2.7.6-4.1 0-1.4 1.8-2.8 1.8-4.2-.1-1.4-.8-2.7-.9-4.1-.1-1.4 0-2.8-.2-4.1-.1-1.4-2.3-2.5-2.5-3.8-.2-1.4.7-2.8.5-4.2-.3-1.4.9-3 .6-4.3-.3-1.4-2.2-2.3-2.5-3.6-.4-1.3-.9-2.6-1.3-3.9-.5-1.3-1.4-2.3-1.9-3.6-.5-1.3-.5-2.7-1.1-4-.6-1.3 1.5-3.8.9-5.1-.7-1.2-3.6-1.2-4.3-2.4-.7-1.2-1.4-2.3-2.2-3.4-.8-1.1.9-4.2.1-5.3-.9-1.1-4.7.4-5.7-.6-.9-1-.9-2.9-1.8-3.9-1-.9-2.4-1.4-3.4-2.3-1.1-.9-2.1-1.7-3.2-2.6-1.1-.8-1.3-2.9-2.5-3.6-1.1-.8-2.6-1.1-3.8-1.8-1.2-.7-1.3-3.6-2.6-4.2-1.2-.6-3.9 1.8-5.2 1.2-1.3-.6-1.4-3.9-2.8-4.4-1.3-.5-2.6-1.1-4-1.6s-3.6 1.8-4.9 1.4c-1.4-.4-3.1.9-4.4.6-1.4-.3-2.3-2.6-3.7-2.8-1.4-.2-2.9.7-4.3.6-1.4-.1-2.8-.9-4.1-.9-1.4 0-2.7 2.2-4.1 2.3-1.4.1-2.9-1.4-4.2-1.2-1.4.2-2.7.4-4.1.7-1.4.3-2.1 2.3-3.4 2.7-1.3.5-3.6-1.6-4.9-1-1.3.6-3.1.3-4.3 1-1.2.7-.6 4.2-1.8 5-1.1.8-3 .6-4 1.5-1.1.9-2.7 1.2-3.8 2.1-1 1-.1 3.8-1 4.8-.9 1.1-1.6 2.1-2.5 3.2-.9 1.1-4.2.3-5 1.5-.8 1.1-1 2.7-1.8 3.9-.8 1.2-.3 3.1-1 4.3-.7 1.2-1.6 2.2-2.2 3.5-.6 1.3-1.6 2.3-2.2 3.6-.6 1.3-4 1.3-4.6 2.6-.5 1.3-1.1 2.7-1.6 4-.5 1.3.3 3.2-.1 4.5-.5 1.3.1 3-.3 4.3-.4 1.3-2.6 2.2-3 3.5-.4 1.3 2.1 3.6 1.8 4.9-.4 1.4-2.2 2.4-2.5 3.7-.3 1.4-.4 2.8-.7 4.2-.3 1.4.9 3.1.7 4.4-.3 1.4-1.3 2.6-1.6 4-.3 1.4.7 3 .5 4.4-.2 1.4-1.6 2.6-1.8 4-.2 1.4-2.3 2.5-2.5 3.9-.2 1.4 2.4 3.2 2.2 4.5-.2 1.4-3.8 2.4-4 3.8-.2 1.5 1.3 3 1.2 4.3-.1 1.5-2.5 2.8-2.6 4-.1 1.6.8 3.1.7 4.3-.1 2.7 2.6 1.7.6 2.3-2 .6-2.6 2.2-4.1 0-.7-1-.9-2.5-1.8-3.8-.7-1.1 1.6-4.4.7-5.6-.8-1.1-1.4-2.4-2.3-3.6-.8-1.1-3.5-.9-4.3-2-.8-1.1-1.4-2.3-2.4-3.5-.8-1.1-.2-3.4-1.1-4.5-.9-1.1-1.9-2.1-2.8-3.2-.9-1.1-2.4-1.6-3.3-2.7-.9-1.1-3.1-1-4.1-2-.9-1-3.2-.9-4.2-1.9-.9-1 .3-4-.7-5-.9-1-3-1.1-4-2.1-.9-1-1.1-2.8-2.1-3.8s-1.9-2.1-2.9-3.1-3.3-.5-4.3-1.5-1.6-2.4-2.6-3.4c-1-.9.2-4.3-.9-5.3-1.1-.9-2.3-1.6-3.4-2.6-1.1-.9-4.6 1.1-5.7.2-1.1-.9-1.6-2.4-2.7-3.2-1.1-.9-.9-3.4-2-4.3-1.1-.8-1.4-2.9-2.5-3.7-1.1-.8-5 2.2-6.1 1.4-1.2-.8-.8-3.9-1.9-4.6-1.2-.7-2.6-1.2-3.8-1.9-1.2-.7-2.3-1.6-3.5-2.3-1.2-.7-2.7-.9-3.9-1.6-1.3-.7-2.3-1.7-3.5-2.3-1.3-.6-1.4-3.7-2.7-4.3-1.3-.6-4.3 3.1-5.7 2.6-1.3-.5-2.2-1.9-3.6-2.3-1.3-.5-2.6-.9-4-1.3s-2.5-1.4-3.9-1.7c-1.4-.3-2.3-2.7-3.7-3-1.4-.3-2.8-.9-4.2-1.1-1.4-.2-2.8-1.1-4.2-1.2-1.4-.1-3 1.6-4.4 1.5-1.4-.1-2.8 2-4.2 2-1.4 0-2.9-2.9-4.3-2.8-1.4.1-2.4 4.1-3.8 4.3-1.4.2-2.6.8-4 1.1-1.4.3-3.4-2.8-4.8-2.4-1.4.3-2.2 2.3-3.6 2.8-1.3.4-3.6-1.7-4.9-1.2-1.3.5-2.2 2.1-3.5 2.7-1.3.6-2 2.3-3.3 2.9-1.3.6-3.3-.2-4.5.5-1.2.7-.9 3.9-2.1 4.6-1.2.7-2.9.6-4.1 1.4-1.1.8-3.9-.6-5.1.3-1.1.9.6 5.3-.4 6.2-1.1.9-2.6 1.3-3.6 2.2-1.1.9-2.8 1.1-3.8 2-1 1-3 1-4 1.9-1 1-3.2 1-4.1 2-1 1.1 1.7 5.2.8 6.2-.9 1.1-1.3 2.4-2.2 3.5-.8 1.2-2.1 1.8-2.8 3-.8 1.2-1.4 2.3-2 3.5-.7 1.3-1.2 2.4-1.8 3.6-.6 1.3-2 2.1-2.5 3.4-.5 1.4-4.2 1.8-4.5 3.2-.3 1.4-.8 3-.9 4.3-.2 1.4 4 3.2 4 4.6 0 1.4.2 2.6.3 4 .1 1.4 1.1 2.5 1.4 3.8.3 1.4.1 2.6.4 4 .4 1.3-.5 3 0 4.3.5 1.3 1.4 2.4 2 3.6.6 1.3-1.5 3.9-.8 5.1.7 1.2 4.9.3 5.6 1.5.8 1.2 1.1 2.4 2 3.6.8 1.1 1.3 2.4 2.1 3.5.9 1.1-.5 4.1.4 5.1.9 1.1 3.7.4 4.7 1.4 1 1 .3 3.7 1.3 4.7s3.1.9 4.1 1.8c1.1.9.9 3.3 2 4.2 1.1.9 1.8 2.4 2.8 3.2 1.1.9 4.8-1.6 5.9-.8 1.1.9 0 4.8 1.1 5.6 1.2.8 4.1-1 5.3-.2 1.2.8 2.2 1.8 3.3 2.6 1.2.8.5 4.5 1.6 5.3h.1c-1.3-.2-2.8-.3-4.2-.5-1.3-.1-2.8 0-4.3-.1-1.4-.1-2.9 1.5-4.3 1.4-1.4-.1-2.7-2.8-4.2-2.8-1.4 0-2.8 4.1-4.2 4.1-1.4 0-2.8-1.4-4.2-1.3-1.4.1-2.7.9-4.1 1-1.4.1-2.7.3-4.1.5-1.4.2-2.4 1.8-3.8 2.1-1.4.3-3.8-3.9-5.1-3.5-1.3.3-1.1 6-2.5 6.4-1.3.5-4.3-3.8-5.6-3.3-1.3.5-2.2 2.1-3.5 2.7-1.3.6-2.6 1.2-3.8 1.9-1.2.7-2.9.8-4.1 1.6-1.1.8.3 5.1-.8 5.9-1.1.9-4.1-.6-5.1.4-1 .9-3.3.8-4.3 1.8-.9 1-.5 3.4-1.4 4.5-.4.5-1.2.9-2 1.3-.7.3-1.4.7-1.8 1.3-.8 1.1-.3 3.2-1 4.4-.7 1.2-.3 3-.9 4.3-.6 1.3-2.6 1.9-3.1 3.2-.5 1.3-1.4 2.5-1.8 3.9-.5 1.3-1.7 2.4-2.1 3.8-.4 1.3 3.9 3.9 3.6 5.3-.3 1.3-4.8 1.8-5.1 3.2-.3 1.4-1.3 2.7-1.6 4.1-.2 1.4 2 3.1 1.9 4.5-.1 1.4 1.8 2.9 1.6 4.3-.1 1.4-4.1 2.5-4.1 4-.1 1.4 1.5 2.9 1.5 4.3s3 2.8 3 4.2c0 1.4-3.6 2.9-3.5 4.2.1 1.4-1.6 3-1.4 4.3.1 1.4.7 2.8.8 4.2.2 1.4 1.8 2.6 2 4 .3 1.4 3.6 2.1 3.9 3.4.3 1.4-1.4 3.2-1.1 4.5.3 1.3.2 2.8.6 4.2.4 1.3-.8 3.3-.4 4.5.5 1.3 1.8 2.4 2.3 3.6.5 1.3 2.8 1.9 3.3 3.1.5 1.3.4 2.9 1 4.2.6 1.2 2 2.1 2.7 3.3.7 1.2.1 3.2.7 4.3.7 1.2 3.4 1.2 4.1 2.4.7 1.2.2 3.2 1 4.3.8 1.1 2.2 1.8 3 3 .8 1.1 1.6 2.2 2.4 3.4.9 1.1 3.2.9 4.1 2 .9 1.1 1.2 2.6 2.1 3.6.9 1 1.3 2.5 2.2 3.5 1 1 1.3 2.6 2.3 3.6 1 1 .9 3.1 1.9 4 1 1 4.3-.5 5.3.4s.1 4.1 1.1 5c1.1.9 2.8 1.1 3.8 1.9 1.1.9 2.4 1.4 3.5 2.3 1.1.9 1.4 2.7 2.5 3.6 1.1.8 3.2.4 4.3 1.2 1.1.8.7 3.9 1.8 4.7 1.1.8 3.4-.1 4.6.7 1.1.8 1.7 2.4 2.9 3.2 1.2.8 4.3-1.6 5.5-.9 1.2.7-.1 5.4 1.1 6.1 1.2.7 4.9-2.9 6.1-2.2 1.2.7 1.1 3.8 2.2 4.4 1.2.7 1.7 2.7 2.9 3.4 1.2.7 3 .3 4.2 1 1.2.6 3.6-1 4.9-.4 1.3.6 2.8.4 4.1 1 1.3.6.5 5.5 1.7 6.1 1.3.6 3.4-.8 4.7-.2 1.3.6 2 2.5 3.2 3H506c0-1.5-.1-3.2.5-3.7 1.1-.8 2.8-.8 3.9-1.6s2.3-1.4 3.4-2.3c1.1-.9 2-1.8 3-2.8 1.1-.9 3.5-.1 4.5-1.1 1-.9 2.3-1.6 3.3-2.6s1-2.9 1.9-3.9c.9-1 3.5-.6 4.3-1.6.9-1-.5-4 .3-5.1.9-1.1 2.8-1.3 3.6-2.4.8-1.1 3.9-.9 4.6-2 .7-1.2-.6-3.6.1-4.8.7-1.2.3-2.9.9-4.1.5-1.3 1.5-2.4 2-3.7.4-1.3-.7-3-.4-4.3.3-1.3 4.2-2 4.4-3.4.2-1.4-2.1-3-2-4.4.1-1.4-.1-2.7-.1-4.1-.1-1.4-.3-2.6-.5-4-.2-1.3-.7-2.6-.9-4-.3-1.3-1.6-2.3-2-3.6-.4-1.3.6-3 .1-4.3-.5-1.3-1.8-2.1-2.4-3.4-.6-1.2-.2-2.9-.9-4.1-.7-1.2-2.7-1.5-3.4-2.7-.7-1.2-1.3-2.3-2.1-3.5-.8-1.1-2.1-1.7-2.9-2.9-.8-1.1 1.8-4.9.9-6-.9-1.1-4.7.4-5.6-.7-.9-1 .5-4.2-.5-5.2-.9-1-4.8-1.1-5.8-2.1.1-2.1 2.4-1.5 4.3-3.5.9-.9 3.8 0 4.9-1.2.9-1 1.8-2 2.8-3.2.9-1-.5-4 .4-5.1.8-1.1 4.8.2 5.7-1 .8-1.1-2.7-5.3-1.8-6.5.8-1.1 1.6-2.2 2.4-3.4.8-1.1 1.7-2.1 2.4-3.4.7-1.2 4.3-.7 5-2 .7-1.2 2.4-1.9 3.1-3.2.6-1.3.2-3.1.8-4.4.6-1.3-1.6-3.7-1.1-5.1.5-1.3 1.2-2.4 1.6-3.8.5-1.3 2.5-2.1 3-3.4.4-1.3 2.6-2.2 3-3.6.3-1.3-1.7-3.3-1.5-4.7-.3-.6 2-1.7 2.2-3.1zM96.8 258c1.3.8 2.4 1.5 3.6 2.1 1.4.8 1.6 3.3 2.6 3.9 2.4 1.2 6.1.7 5.3 2.6-.9 1.9-3.6 1-6.2.4-1.1-.3-1.8-3.5-3.4-3.8-1.3-.3-3.3 2.8-4.7 2.6-1.2-.2-1.8-4.7-3.1-5.4 1.5 0 4.8-3 5.9-2.4zm278-2.9c-.9-.6-.5-.3.3-.2.2.7.7.9-.3.2z"/><path class="st1" d="M546.2 131.3c-2.6 89.4-39.4 145.2-73.7 177.9-30.6 29.4-59.2 40.3-59.3 40.3 2.6-8.4 5.9-17 10-25.8 2.1-4.8 4.5-9.5 7.1-14.4 28.4-52.6 49.1-104.9 54.4-154.9v.1s51.6-21.2 45.3-133.9c0 0-21.4-27.3-43.9 0 0 0 20.3 57.2-.8 91.9-3.2-39.1-17.8-76.4-47.9-110.9 0 0-44.8-11.6-44.8 26 0 0 70.8 82.3 21.7 200.8-5.3 12.9-10.7 25.2-15.9 37-4.6-2.5-12.2-7.2-20.8-14.8 61.3-80.2 13.7-180.3 13.7-180.3-34-25-46.9 11.2-46.9 11.2 64.3 53.1 19.3 154.4 19.2 154.6-24.2-28.7-48.8-80.3-38.8-168.6 0 0-13.3-33.6-47.6 0 0 0-3.3 71.3 20.7 136l-.2-.5s-54.8-7.4-49.9-79.5c0 0-14.7-28.7-33.6-3.5 0 0-9.4 108.9 96.9 112.6l-.3-.6c15.9 29.3 39.1 54.4 73.2 66.6-5.4 12.6-10.4 24.8-14.7 36.6-5.2 14.2-9.4 28-12.3 41.6l.1-.5s-24.4-13.7-31.3-46.3c-1.4-6.5-2-13.7-1.7-21.7 0 0-14-21-30.8 3.5 0 0-.6 3.8-.8 9.8-.5 21.3 4.5 71.1 60.5 87.5v-.3c-.6 18.2 1.8 36.6 8.2 56.1h52.1c-7.3-21.6-12.9-52.1-6.7-88.5 61.7-9.5 103.6-44.3 132-84.6 48.7-69.2 57.3-154.3 57.3-154.3-24.5-46.8-49.7-6.2-49.7-6.2zM406.7 376.4c1.5-8.6 3.6-17.5 6.5-26.7l-6.5 26.7z"/><g class="st2"><path class="st3" d="M459.1 81.3c7.5 0 7.5-11.6 0-11.6s-7.5 11.6 0 11.6zM448.4 147.5c4 0 4-6.2 0-6.2s-4 6.2 0 6.2zM482.9 141.1c3.4 0 3.4-5.3 0-5.3-3.5 0-3.5 5.3 0 5.3zM417.3 23.8c.8.4 1.6.8 2.3 1.3 3.5 1.9 8.5 1 10.5-2.7 1.8-3.4 1.1-8.6-2.7-10.5-.8-.4-1.6-.8-2.4-1.1-1.9-.9-3.8-1.3-5.8-.8-1.8.5-3.7 1.8-4.5 3.5-1.9 3.4-1.1 8.2 2.6 10.3zM501.9 58c3.5 0 3.5-5.4 0-5.4s-3.5 5.4 0 5.4zM524.4 36c7.3 0 7.3-11.3 0-11.3-7.2.1-7.3 11.3 0 11.3zM560 171.6c3.5 0 6.8-3.1 6.7-6.7-.2-3.6-2.9-6.7-6.7-6.7-3.5 0-6.8 3.1-6.7 6.7.2 3.7 3 6.7 6.7 6.7zM563.6 211.6c3.9 0 3.9-6.1 0-6.1s-3.9 6.1 0 6.1zM492.2 306c0-.1.1-.2.1-.4-.4.7-.8 1.4-1.3 2.1.8-.9 1.3-1.7 1.6-2.8 1-3.3-1.7-6.6-5.1-6.6-3.4 0-6 3.4-5.1 6.6.3 1.1.8 2 1.6 2.8-.4-.7-.8-1.4-1.3-2.1 0 .1.1.2.1.4.7 1.9 2.3 3.6 4.6 3.5 2.4-.2 4-1.5 4.8-3.5zM525.6 291.5c2.9 0 2.9-4.4 0-4.4-2.8 0-2.8 4.4 0 4.4zM379.8 389.6c.8-1.2 1.7-2.3 2.5-3.5.9-1.2 1-3.3.6-4.6-.4-1.4-1.5-2.9-2.8-3.6-2.9-1.5-6.5-.7-8.2 2.2-.7 1.2-1.5 2.4-2.2 3.7-1.6 2.6-.7 6.5 2.1 7.9 3.1 1.6 6.1.5 8-2.1zM399.7 358c2.9 0 2.9-4.5 0-4.5s-2.9 4.5 0 4.5zM398.7 289.3c0-.2.1-.5.1-.7.8-6.4-9.2-6.4-10.1 0 0 .2-.1.5-.1.7-.9 6.6 11.2 6.6 10.3 0 0-.2-.1-.5-.1-.7-.8-6.3-10.9-6.4-10.1 0 0 .2.1.5.1.7.9 6.3 9.1 6.3 9.9 0zM450.8 238.9c3.9 0 3.9-6 0-6-3.9-.1-3.9 6 0 6zM438.9 207.7c8.2 0 8.2-12.7 0-12.7-8.1.1-8.1 12.7 0 12.7zM390.2 214c4 0 4-6.2 0-6.2-3.9 0-3.9 6.2 0 6.2zM387.9 148.2c3.4 0 3.4-5.3 0-5.3-3.5 0-3.5 5.3 0 5.3zM397.4 115.2c3.7 0 3.7-5.8 0-5.8-3.8 0-3.8 5.8 0 5.8zM358.9 84c.1.2.2.4.3.7 2.9 7.1 11.7 7.1 14.6 0 .1-.2.2-.4.3-.7 5-12.5-20.3-12.6-15.2 0zM311.9 96.9c3.1 0 3.1-4.8 0-4.8s-3.1 4.8 0 4.8zM309.5 190.7c.4 0 .8.1 1.2.1 1.7.2 3.9-.9 5.1-2.1 1.3-1.3 2.2-3.3 2.1-5.1-.2-3.6-3.2-7.6-7.3-7.3-.4 0-.8.1-1.2.1-1.9.2-3.6.7-5.1 2.1-1.2 1.2-2.2 3.3-2.1 5.1.1 1.8.7 3.8 2.1 5.1 1.6 1.3 3.2 1.8 5.2 2zM355.2 249.4c.3-.6.5-1.2.6-1.9.4-2.3-1-4.7-3.6-4.7-2.5 0-4 2.3-3.6 4.7.1.7.3 1.3.6 1.9 1.1 2.2 4.9 2.2 6 0zM276.2 215.1c3.9 0 3.9-6.1 0-6.1s-3.9 6.1 0 6.1zM248.5 162.9c-1-.2-1.8-.4-2.8-.1-3 .7-3 5.4 0 6 1.1.2 1.8.1 2.8-.1 2.9-.6 2.9-5.2 0-5.8zM226.8 142.6c-.3.2-.5.4-.8.6-6.4 4.9-.1 16 6.4 11 .3-.2.5-.4.8-.6 8.3-6.4-2.5-17.3-8.9-8.9-.2.3-.4.5-.6.8-5 6.5 6.1 12.9 11 6.4.2-.3.4-.5.6-.8 3.7-4.8-3.7-12.2-8.5-8.5zM377.8 440.3c-.4.1-.7.1-1.1.2-1.9.6-1.9 3.3 0 3.9.4.1.7.2 1.1.2 1.4.2 2.8-.6 2.8-2.2 0-1.5-1.4-2.3-2.8-2.1z"/></g><g><path class="st4" d="M71.1 267.4s5.2 51.4 34.6 93.1c17.1 24.3 42.4 45.3 79.7 51.1 3.7 22 .3 40.4-4.1 53.4h31.4c3.9-11.7 5.3-22.9 4.9-33.9v.2c33.8-9.9 36.8-40 36.5-52.8-.1-3.7-.5-5.9-.5-5.9-10.1-14.8-18.6-2.1-18.6-2.1.2 4.8-.2 9.2-1 13.1-4.1 19.7-18.9 28-18.9 28v.3c-1.7-8.3-4.3-16.6-7.4-25.1-2.6-7.2-5.6-14.5-8.9-22.1 20.6-7.4 34.6-22.5 44.2-40.2l-.2.4c64.1-2.2 58.5-67.9 58.5-67.9-11.4-15.2-20.3 2.1-20.3 2.1 3 43.5-30.1 48-30.1 48l-.1.3c14.5-39.1 12.5-82.1 12.5-82.1-20.7-20.3-28.7 0-28.7 0 6 53.3-8.8 84.5-23.4 101.8-.1-.1-27.3-61.3 11.6-93.3 0 0-7.8-21.8-28.3-6.8 0 0-28.7 60.4 8.3 108.8-5.2 4.6-9.8 7.4-12.6 8.9-3.1-7.1-6.4-14.5-9.6-22.3C151 250.7 193.8 201 193.8 201c0-22.7-27-15.7-27-15.7-18.2 20.8-26.9 43.3-28.9 66.9-12.7-21-.5-55.5-.5-55.5-13.6-16.5-26.5 0-26.5 0-3.8 68.1 27.4 80.8 27.4 80.8v-.1c3.2 30.2 15.7 61.8 32.9 93.5 1.6 2.9 3 5.8 4.3 8.7 2.5 5.3 4.4 10.5 6 15.6-.1 0-17.3-6.6-35.8-24.3-20.7-19.8-42.9-53.5-44.5-107.4-.1.1-15.3-24.5-30.1 3.9zm110.4 128c1.7 5.5 3 10.9 3.9 16.1l-3.9-16.1z"/><g class="st2"><path class="st3" d="M153.7 233.4c-4.5 0-4.5-7 0-7s4.5 7 0 7zM160.2 273.3c-2.4 0-2.4-3.8 0-3.8 2.4.1 2.4 3.8 0 3.8zM139.4 269.5c-2.1 0-2.1-3.2 0-3.2s2.1 3.2 0 3.2zM178.9 198.6c-.5.3-.9.5-1.4.8-2.1 1.2-5.1.6-6.3-1.7-1.1-2-.7-5.2 1.7-6.3.5-.2 1-.5 1.5-.7 1.1-.5 2.3-.8 3.5-.5 1.1.3 2.2 1.1 2.7 2.1 1.1 2.2.6 5.1-1.7 6.3zM127.9 219.3c-2.1 0-2.1-3.3 0-3.3 2.1.1 2.1 3.3 0 3.3zM114.3 206.1c-4.4 0-4.4-6.8 0-6.8 4.4-.1 4.4 6.8 0 6.8zM92.8 287.9c-2.1 0-4.1-1.8-4-4 .1-2.2 1.8-4 4-4 2.1 0 4.1 1.8 4 4-.1 2.2-1.8 4-4 4zM90.6 312c-2.4 0-2.4-3.7 0-3.7s2.4 3.7 0 3.7zM133.8 369c0-.1-.1-.1-.1-.2.3.4.5.9.8 1.3-.5-.5-.8-1-1-1.7-.6-2 1-4 3.1-4 2 0 3.6 2 3.1 4-.2.7-.5 1.2-1 1.7.3-.4.5-.9.8-1.3 0 .1-.1.1-.1.2-.4 1.1-1.4 2.2-2.7 2.1-1.5-.1-2.5-.9-2.9-2.1zM113.6 360.3c-1.7 0-1.7-2.7 0-2.7s1.7 2.7 0 2.7zM201.6 419.5l-1.5-2.1c-.5-.7-.6-2-.4-2.8.2-.8.9-1.8 1.7-2.2 1.8-.9 3.9-.4 5 1.3.4.7.9 1.5 1.3 2.2.9 1.6.4 3.9-1.3 4.8-1.8 1-3.6.4-4.8-1.2zM189.6 400.4c-1.8 0-1.8-2.7 0-2.7 1.7 0 1.7 2.7 0 2.7zM190.2 358.9c0-.1 0-.3-.1-.4-.5-3.9 5.6-3.8 6.1 0 0 .1 0 .3.1.4.5 4-6.7 4-6.2 0 0-.1 0-.3.1-.4.5-3.8 6.6-3.9 6.1 0 0 .1 0 .3-.1.4-.6 3.9-5.5 3.9-6 0zM158.7 328.5c-2.3 0-2.4-3.7 0-3.7s2.4 3.7 0 3.7zM165.9 309.7c-4.9 0-4.9-7.7 0-7.7s4.9 7.7 0 7.7zM195.3 313.5c-2.4 0-2.4-3.7 0-3.7s2.4 3.7 0 3.7zM196.7 273.8c-2.1 0-2.1-3.2 0-3.2s2.1 3.2 0 3.2zM191 253.9c-2.2 0-2.2-3.5 0-3.5s2.2 3.5 0 3.5zM214.2 235c-.1.1-.1.3-.2.4-1.7 4.3-7.1 4.3-8.8 0-.1-.1-.1-.3-.2-.4-3-7.6 12.3-7.6 9.2 0zM242.6 242.8c-1.9 0-1.9-2.9 0-2.9s1.9 2.9 0 2.9zM244.1 299.4c-.2 0-.5 0-.7.1-1.1.1-2.4-.6-3.1-1.3-.8-.8-1.3-2-1.3-3.1.1-2.2 1.9-4.6 4.4-4.4.2 0 .5 0 .7.1 1.2.1 2.2.4 3 1.3.7.7 1.3 2 1.3 3 0 1.1-.4 2.3-1.3 3-.9.9-1.9 1.2-3 1.3zM216.5 334.9c-.2-.4-.3-.7-.4-1.2-.3-1.4.6-2.8 2.1-2.8s2.4 1.4 2.1 2.8c-.1.4-.2.8-.4 1.2-.5 1.3-2.8 1.3-3.4 0zM264.1 314.2c-2.4 0-2.4-3.7 0-3.7s2.4 3.7 0 3.7zM280.8 282.6c.6-.1 1.1-.2 1.7-.1 1.8.4 1.8 3.3 0 3.7-.6.1-1.1 0-1.7-.1-1.7-.3-1.7-3.1 0-3.5zM294 270.4c.2.1.3.2.5.4 3.9 3 .1 9.6-3.9 6.6-.2-.1-.3-.2-.5-.4-5-3.8 1.5-10.4 5.4-5.4.1.2.2.3.4.5 3 3.9-3.7 7.8-6.6 3.9-.1-.2-.2-.3-.4-.5-2.3-2.9 2.2-7.4 5.1-5.1zM202.8 450.1c.2 0 .5.1.7.1 1.2.3 1.2 2 0 2.4-.2.1-.4.1-.7.1-.9.1-1.7-.4-1.7-1.3s.9-1.4 1.7-1.3z"/></g></g></svg>