<svg id="Layer_1" xmlns="http://www.w3.org/2000/svg" viewBox="0 0 448.7 338.6"><style>.st0{fill:#F9C757;} .st1{fill:#E83C5A;} .st2{opacity:0.66;} .st3{fill:#FFFFFF;}</style><path class="st0" d="M3.1 208.2c.2 1.1-1.5 2.7-1.2 3.8.3 1.1 2.1 1.8 2.4 2.9.3 1.1 2 1.7 2.4 2.8.4 1.1.9 2 1.3 3 .4 1.1-1.4 3-.9 4.1.5 1 .1 2.5.6 3.5s2 1.6 2.5 2.6c.6 1 3.4.6 4 1.6.6 1 1.3 1.8 1.9 2.7.6 1 1.3 1.8 1.9 2.7.7.9-2.1 4.4-1.5 5.2.7.9 3.9-.1 4.6.8.7.9-.4 3.3.3 4.1.8.9 1.6 1.8 2.3 2.6.9 1 3.3.3 3.9 1 1.5 1.6 3.3 1.1 3.4 2.8-.8.8-3.9.9-4.7 1.7-.8.8.3 3.4-.4 4.2-.8.8-3.8-.3-4.5.5-.7.9 1.4 4 .8 4.9-.7.9-1.7 1.4-2.4 2.3-.6.9-1.1 1.9-1.7 2.8-.6 1-2.2 1.2-2.8 2.2-.6 1-.3 2.3-.7 3.3-.5 1-1.5 1.7-1.9 2.8-.4 1.1.4 2.4 0 3.5-.3 1.1-1.4 1.9-1.6 2.9-.2 1.1-.6 2.1-.8 3.2-.2 1.1-.4 2.2-.4 3.3 0 1.1-.2 2.2-.1 3.3 0 1.1-1.8 2.5-1.7 3.6s3.3 1.7 3.5 2.7c.3 1.1-.6 2.4-.3 3.5.4 1.1 1.1 1.9 1.6 3 .4 1 .2 2.3.7 3.3.5 1-.5 2.9 0 3.9.6.9 3.1.7 3.7 1.6.6.9 2.2 1.1 2.9 2 .7.9-.5 3.3.3 4.1.7.8 2.8.5 3.5 1.3.8.8.8 2.4 1.6 3.2.8.8 1.8 1.4 2.6 2.1.8.8 2.8.2 3.6.9.9.7 1.6 1.5 2.5 2.2.9.7 1.8 1.2 2.7 1.9.9.7 2.2.7 3.1 1.3.6.4.4 1.8.4 3H360c1-.4 1.6-1.9 2.6-2.4s2.8.6 3.8.2c1-.5.4-4.4 1.4-4.9 1-.5 2.3-.3 3.3-.8s2.9.8 3.9.3 2.4-.3 3.4-.8 1.4-2.2 2.3-2.7c1-.5.8-3 1.8-3.6 1-.6 4 2.4 4.9 1.8 1-.6 0-4.4.9-5 1-.6 3.5 1.4 4.4.7.9-.6 1.4-1.9 2.3-2.6.9-.6 2.8.1 3.7-.6.9-.6.6-3.1 1.5-3.8.9-.7 2.6-.3 3.5-1 .9-.7 1.1-2.2 2-2.9.9-.7 1.9-1.1 2.8-1.9.8-.7 2.2-.8 3.1-1.6.8-.7.1-3.3.9-4 .8-.8 3.5.5 4.3-.3.8-.8.7-2.5 1.5-3.3.8-.8 1.1-2.1 1.8-2.9.8-.8 1.1-2 1.8-2.8.8-.8 1-2.1 1.7-2.9.7-.9 2.6-.7 3.3-1.6.7-.9 1.3-1.8 2-2.7.7-.9 1.8-1.5 2.4-2.4.6-.9.2-2.5.8-3.5.6-.9 2.7-.9 3.3-1.9.6-1 .1-2.5.6-3.5s1.7-1.7 2.2-2.7c.5-1 .3-2.3.8-3.3s2.2-1.5 2.7-2.5c.4-1 1.5-1.9 1.9-2.9.4-1-.6-2.6-.3-3.7s.2-2.3.5-3.3c.3-1.1-1.1-2.5-.8-3.6.3-1.1 2.9-1.7 3.1-2.8.2-1.1 1.5-2.1 1.6-3.2.1-1.1.6-2.2.7-3.4.1-1.1-1.2-2.4-1.1-3.5.1-1.1-2.8-2.3-2.8-3.4 0-1.2 2.4-2.3 2.4-3.4s1.3-2.3 1.2-3.5c0-1.1-3.2-2.1-3.3-3.2-.1-1.1 1.4-2.4 1.3-3.5-.1-1.1 1.7-2.5 1.5-3.6-.2-1.1-1.1-2.2-1.3-3.3-.2-1.1-3.9-1.5-4.1-2.6-.3-1.1 3.2-3.2 2.9-4.2-.3-1.1-1.4-2.1-1.7-3.1-.4-1.1-1.1-2.1-1.5-3.1-.4-1.1-2-1.6-2.5-2.6s-.2-2.5-.7-3.4c-.6-1-.2-2.7-.8-3.6-.3-.5-.9-.8-1.4-1-.6-.3-1.3-.6-1.6-1-.7-.9-.4-2.8-1.1-3.6-.8-.8-2.6-.7-3.5-1.5-.8-.8-3.3.4-4.1-.3-.9-.7.3-4.2-.7-4.8-.9-.6-2.3-.7-3.3-1.3-1-.6-2.1-1.1-3.1-1.6s-1.8-1.8-2.8-2.2c-1.1-.4-3.5 3-4.5 2.6-1.1-.3-.9-4.9-2-5.2-1.1-.3-3 3-4.1 2.8-1.1-.2-2-1.5-3.1-1.7-1.1-.2-2.2-.3-3.3-.4-1.1-.1-2.2-.7-3.3-.8-1.1-.1-2.3 1.1-3.4 1.1s-2.3-3.3-3.4-3.3-2.2 2.2-3.3 2.2c-1.1.1-2.4-1.2-3.5-1.1-1.2.1-2.4 0-3.4.1-1.1.1-2.3.3-3.4.4.9-.6.4-3.6 1.3-4.2.9-.6 1.7-1.4 2.7-2.1.9-.6 3.3.8 4.2.2.9-.7 0-3.9.9-4.5.9-.7 3.9 1.4 4.8.6.9-.7 1.4-1.9 2.3-2.6.9-.7.8-2.6 1.6-3.4.8-.8 2.5-.6 3.3-1.4.8-.8.3-2.9 1-3.8.8-.8 3-.3 3.8-1.1.7-.8-.4-3.3.3-4.1.7-.9 1.1-1.9 1.7-2.8.7-.9 1-1.9 1.6-2.9.6-.9 4-.2 4.5-1.2.6-1-1.1-3.1-.6-4.1.5-1 1.2-1.9 1.6-2.9.4-1.1-.3-2.4 0-3.4.3-1.1.1-2.1.3-3.2.2-1.1 1-1.9 1.1-3.1.1-1.1.3-2.1.3-3.2s3.3-2.6 3.2-3.7c-.1-1.1-.5-2.4-.8-3.5-.3-1.1-3.3-1.5-3.6-2.6-.4-1-1.6-1.7-2-2.8-.4-1-.9-1.9-1.4-2.9-.5-1-1-1.9-1.7-2.8-.6-.9-1.6-1.5-2.3-2.4-.7-.9-1-1.9-1.7-2.8-.7-.8 1.4-4.2.7-5-.7-.8-2.5-.8-3.3-1.6-.8-.8-2.4-.8-3.2-1.6-.8-.8-2.2-.8-3.1-1.6-.8-.7-2-1-2.9-1.7-.8-.7.6-4.3-.3-5-.9-.7-3.2.4-4.1-.3-.9-.7-2.3-.6-3.3-1.1-1-.6-.7-3.2-1.7-3.7-1-.6-2.7.1-3.7-.4s-1.6-1.9-2.6-2.4c-1.1-.5-1.8-1.8-2.8-2.2-1.1-.4-2.9 1.3-4 1-1.1-.3-1.8-1.9-2.9-2.2-1.1-.3-2.8 2.2-3.9 2-1.1-.2-2.1-.7-3.2-.9-1.1-.1-1.9-3.4-3-3.5-1.1-.1-2.4 2.2-3.5 2.2s-2.3-1.7-3.4-1.6c-1.1 0-2.5-1.3-3.6-1.2-1.1.1-2.3.8-3.4 1-1.1.2-2.3.6-3.4.9-1.1.2-1.9 2.1-3 2.4s-2 1.1-3.1 1.4c-1.1.3-2.1.6-3.2 1s-1.8 1.5-2.9 1.9c-1.1.4-3.5-2.5-4.6-2.1-1 .5-1.2 2.9-2.2 3.4-1 .5-1.8 1.4-2.8 1.9-1 .5-2.2.7-3.2 1.3-1 .6-1.9 1.3-2.8 1.9-1 .6-2.1.9-3 1.5-.9.6-.6 3.1-1.6 3.7-.9.6-4-1.8-5-1.1-.9.7-1.1 2.3-2 3-.9.7-.7 2.7-1.6 3.4-.9.7-1.3 1.9-2.2 2.6-.9.7-3.7-.9-4.6-.2-.9.8-1.9 1.4-2.7 2.1-.8.8.1 3.5-.7 4.3-.8.8-1.3 1.9-2.1 2.7-.8.8-2.7.4-3.5 1.2-.8.8-1.6 1.7-2.3 2.5-.8.8-.9 2.2-1.7 3.1-.8.8-2.4.8-3.2 1.7-.8.8.2 3.2-.6 4-.8.8-2.6.7-3.3 1.5-.8.9-2.5.8-3.3 1.7-.7.9-2 1.3-2.7 2.2-.7.9-1.6 1.7-2.3 2.6-.7.9-.2 2.8-.9 3.6-.7.9-1.2 1.9-1.9 2.8-.7.9-2.9.8-3.5 1.6-.7 1-1.2 2-1.8 2.9-.7 1 1.1 3.7.6 4.5-.7 1.1-.9 2.3-1.5 3-1.2 1.8-1.7.5-3.3 0-1.6-.5.6.3.5-1.9-.1-1 .7-2.2.6-3.5-.1-1-2-2-2.1-3.3-.1-1.1 1.1-2.3.9-3.5-.1-1.1-3-1.9-3.2-3-.1-1.1 1.9-2.5 1.8-3.7-.1-1.1-1.8-2-2-3.1-.2-1.1-1.3-2-1.5-3.2-.2-1.1.6-2.4.4-3.5-.2-1.1-1-2.1-1.3-3.2-.2-1.1.8-2.5.5-3.6-.3-1.1-.3-2.2-.6-3.4-.3-1.1-1.7-1.9-2-3-.3-1.1 1.8-2.9 1.4-3.9-.3-1.1-2.1-1.7-2.4-2.8-.3-1.1.1-2.5-.3-3.5-.4-1.1.3-2.6-.1-3.6-.4-1.1-.8-2.2-1.3-3.2-.5-1.1-3.2-1.1-3.7-2.1s-1.2-1.9-1.7-2.9-1.3-1.9-1.8-2.8c-.6-1-.2-2.5-.8-3.5-.6-1-.8-2.2-1.4-3.1-.7-.9-3.3-.3-4-1.2-.7-.9-1.3-1.8-2-2.6-.8-.8 0-3.1-.8-3.9-.8-.8-2.2-1-3-1.7-.9-.7-2.3-.6-3.3-1.2-.9-.6-.5-3.5-1.4-4.1-1-.6-2.5-.3-3.5-.8s-2.8 1.2-3.9.8c-1.1-.4-1.7-1.9-2.8-2.2-1.1-.3-2.2-.4-3.3-.6-1.1-.2-2.3 1-3.4.9-1.1-.1-2.1-1.9-3.3-1.8-1.1 0-2.2.6-3.3.7-1.1.1-2.3-.7-3.5-.5-1.1.2-1.9 2-3 2.3-1.1.3-2.5-.8-3.6-.5-1.1.3-2.8-1.5-3.9-1.1-1.1.3-2.2.9-3.2 1.3-1.1.4-1.2 3.1-2.2 3.6-1 .4-3.2-1.5-4.2-1s-1.1 2.9-2.1 3.4c-1 .6-2.1.8-3 1.5-.9.6-1.1 2.3-2 2.9-.9.7-1.7 1.4-2.6 2.1-.8.7-1.9 1.1-2.8 1.9-.8.8-.7 2.3-1.5 3.2-.8.8-3.9-.4-4.6.5-.7.9.7 3.3 0 4.3-.6.9-1.2 1.8-1.8 2.8-.6 1-2.9.9-3.5 1.9-.5 1 1.1 3 .7 4.1-.5 1-.4 2.2-.8 3.2s-1.2 1.9-1.6 2.9c-.3 1.1-.7 2.1-1 3.1-.3 1.1-1.8 1.8-2 2.9-.3 1.1.7 2.4.5 3.5-.2 1.1.6 2.3.4 3.4-.2 1.1-1.9 2-2 3.1-.1 1.1-.1 2.2-.1 3.3-.1 1.1-.6 2.2-.7 3.3 0 1.1 1.5 2.2 1.4 3.3 0 1.1.4 2.2.5 3.3 0 1.1 0 2.2.1 3.3.1 1.1-.3 2.2-.2 3.3.1 1.1.8 2.1.9 3.2.1 1.1-3.4 2.7-3.3 3.8.1 1.1.9 2.2 1.1 3.3.2 1.1-.9 2.5-.7 3.5.2 1.1 1.2 2.1 1.4 3.2.2 1.1.3 2.3.5 3.3.2 1.1 3.9 1.4 4.2 2.5.3 1.1-.5 2.4-.2 3.5s1.1 2 1.3 3.1c.3 1.1-2.2 3-1.9 4 .3 1.1 1.9 1.8 2.2 2.8.4 1.2 2.1 1.8 2.4 2.8 0 .1.1.3 0 .4-.1.8-1 1.9-1.4 2.8-.7-.4-1.5-.8-2.2-1.4-.6-.5-.7-1.7-1.2-2.5-.1-.3-.3-.5-.5-.7-.8-.7-2.6-.3-3.5-1.1-.8-.7-2.5-.3-3.5-1.1-.8-.7-2-1-2.9-1.7-.9-.7-1.8-1.3-2.7-2-.9-.6-.8-2.7-1.7-3.4-.9-.6-1.9-1.2-2.8-1.9-.9-.6-1.3-2.2-2.2-2.8-.9-.6-2.7.1-3.7-.5s-2.7.2-3.7-.4c-1-.6-1.6-1.6-2.6-2.2-1-.5-2.1-.7-3.1-1.2s-.6-4-1.6-4.5-3.4 2.1-4.4 1.6c-1-.4-1.9-1.1-3-1.5-1.1-.4-2.4 0-3.4-.3-1-.4-1-4-2-4.4-1.1-.3-3 2.3-4.1 2-1.1-.3-2-1.1-3.1-1.4-1.1-.3-2.3.3-3.4 0-1.1-.2-1.9-2-3-2.2-1.1-.2-2.1-1.6-3.2-1.8-1.1-.1-2.2-1.2-3.3-1.3-1.1-.1-2.4 1-3.5 1s-2.3.3-3.4.4c-1.1 0-2.3-1.1-3.5-1-1.1.1-2.3.3-3.4.4-1.1.2-2.2.8-3.3 1-1.1.2-2.5-.6-3.6-.3s-1.1 4.5-2.2 4.8c-1.1.3-3-2-4.1-1.6-1.1.4-1.9 1.5-2.9 1.9-1 .4-2.1.8-3.1 1.4-.7.4-1.7.3-2.5.5l-.9.3c-1 .6-2.1.9-3.1 1.6-.9.6 0 4-.9 4.7-.9.6-2.8-.2-3.7.5-.9.7-3-.1-3.9.6-.8.7-1.4 1.9-2.2 2.7-.8.8-1.3 2-2.1 2.8-.8.8-1.4 1.9-2.2 2.7-.8.8-.8 2.4-1.5 3.2-.8.9-1.4 1.7-2.2 2.6-.7.9-1.5 1.7-2.2 2.6-.7.9-3.5.4-4.1 1.4-.6 1 .4 3-.2 3.9-.6 1-1.9 1.6-2.4 2.6s1.1 3 .6 4.1c-.5 1.1-2.9 1.3-3.3 2.3-.4 1.1.6 2.6.2 3.7-.3 1.1.8 2.5.6 3.6-.3 1.1-.4 2.1-.6 3.2-.2 1.1-.4 2.1-.5 3.2-.1 1.1-2.1 2.1-2.2 3.2-.1 1.1.5 2.2.5 3.4 0 1.1-2.5 2.4-2.5 3.6.1 1.1.7 2.3.8 3.4.3.8 2.1 1.7 2.4 2.8zm372.3-34.7c-1 .6-1.5 4.2-2.5 4.4-1.2.2-2.8-2.3-3.8-2.1-1.2.3-1.8 2.8-2.7 3.1-2.1.5-4.3 1.2-5-.3-.7-1.5 2.4-1.1 4.3-2.1.8-.5 1-2.5 2.1-3.1.9-.5 1.8-1.1 2.9-1.7.8-.6 3.5 1.9 4.7 1.8zm-229.2-4.4c.6 0 1-.3.3.2-.9.5-.4.3-.3-.2z"/><path class="st1" d="M16.3 100.2s6.2 62 41.7 112.3c20.6 29.3 51.1 54.7 96.1 61.6 4.5 26.5.4 48.7-4.9 64.5h37.9c4.7-14.1 6.4-27.6 5.9-40.8v.2c40.8-11.9 44.4-48.2 44-63.7-.1-4.4-.6-7.1-.6-7.1-12.2-17.8-22.4-2.6-22.4-2.6.3 5.8-.2 11.1-1.2 15.8-5 23.7-22.8 33.7-22.8 33.7l.1.3c-2.1-10-5.2-20-8.9-30.3-3.1-8.6-6.8-17.5-10.7-26.7 24.8-8.9 41.8-27.1 53.3-48.5l-.2.4c77.3-2.7 70.5-81.9 70.5-81.9-13.8-18.4-24.5 2.5-24.5 2.5 3.6 52.5-36.3 57.9-36.3 57.9l-.2.3c17.5-47.1 15.1-99 15.1-99-25-24.5-34.7 0-34.7 0 7.3 64.3-10.6 101.9-28.3 122.8-.1-.2-32.9-73.9 14-112.6 0 0-9.4-26.3-34.2-8.1 0 0-34.6 72.9 10 131.3-6.3 5.6-11.8 9-15.1 10.8-3.8-8.6-7.7-17.5-11.6-26.9-35.8-86.3 15.8-146.2 15.8-146.2 0-27.4-32.6-18.9-32.6-18.9-21.8 25-32.4 52.2-34.8 80.7-15.3-25.3-.6-66.9-.6-66.9-16.4-19.9-32 0-32 0-4.6 82.1 33 97.5 33 97.5v-.1c3.9 36.4 19 74.5 39.6 112.8 1.9 3.5 3.6 7 5.2 10.5 3 6.4 5.3 12.7 7.3 18.8-.1 0-20.9-8-43.2-29.4-25-23.9-51.8-64.5-53.7-129.6.2 0-18.2-29.6-36 4.6zm133 154.4c2.1 6.7 3.6 13.2 4.7 19.4l-4.7-19.4z"/><g class="st2"><path class="st3" d="M115.9 59.2c-5.4 0-5.5-8.5 0-8.5 5.4.1 5.4 8.5 0 8.5zM123.7 107.4c-2.9 0-2.9-4.5 0-4.5s2.9 4.5 0 4.5zM98.6 102.7c-2.5 0-2.5-3.9 0-3.9 2.5.1 2.5 3.9 0 3.9zM146.3 17.3c-.6.3-1.1.6-1.7.9-2.6 1.4-6.2.7-7.6-2-1.3-2.5-.8-6.3 2-7.6.6-.3 1.2-.5 1.8-.8 1.4-.6 2.7-1 4.2-.6 1.3.4 2.7 1.3 3.3 2.5 1.3 2.6.7 6.1-2 7.6zM84.8 42.3c-2.5 0-2.6-4 0-4 2.5 0 2.5 4 0 4zM68.3 26.2c-5.3 0-5.3-8.2 0-8.2s5.3 8.2 0 8.2zM42.4 125c-2.5 0-5-2.2-4.8-4.8.1-2.6 2.1-4.8 4.8-4.8 2.5 0 5 2.2 4.8 4.8-.1 2.5-2.1 4.8-4.8 4.8zM39.8 154c-2.9 0-2.9-4.4 0-4.4s2.9 4.4 0 4.4zM91.8 222.8c0-.1-.1-.2-.1-.3.3.5.6 1 .9 1.6-.6-.6-.9-1.2-1.2-2.1-.7-2.4 1.2-4.8 3.7-4.8 2.4 0 4.4 2.4 3.7 4.8-.2.8-.6 1.4-1.2 2.1.3-.5.6-1 .9-1.6 0 .1-.1.2-.1.3-.5 1.4-1.7 2.6-3.3 2.5-1.6-.1-2.7-1.1-3.3-2.5zM67.5 212.2c-2.1 0-2.1-3.2 0-3.2s2.1 3.2 0 3.2zM173.6 283.6c-.6-.8-1.2-1.7-1.9-2.5-.6-.9-.7-2.4-.4-3.4.3-1 1.1-2.1 2-2.6 2.1-1.1 4.7-.5 6 1.6.5.9 1.1 1.8 1.6 2.7 1.1 1.9.5 4.7-1.5 5.8-2.2 1.1-4.4.4-5.8-1.6zM159.1 260.7c-2.1 0-2.1-3.3 0-3.3 2.2 0 2.2 3.3 0 3.3zM159.8 210.6c0-.2 0-.4-.1-.5-.6-4.7 6.7-4.6 7.3 0 0 .2 0 .4.1.5.6 4.8-8.1 4.8-7.5 0 0-.2 0-.4.1-.5.6-4.6 8-4.7 7.3 0 0 .2 0 .4-.1.5-.5 4.6-6.4 4.6-7.1 0zM121.9 173.9c-2.8 0-2.8-4.4 0-4.4 2.9 0 2.9 4.4 0 4.4zM130.6 151.2c-5.9 0-5.9-9.2 0-9.2s5.9 9.2 0 9.2zM166 155.8c-2.9 0-2.9-4.5 0-4.5s2.9 4.5 0 4.5zM167.8 107.9c-2.5 0-2.5-3.9 0-3.9 2.5.1 2.5 3.9 0 3.9zM160.9 83.9c-2.7 0-2.7-4.2 0-4.2s2.7 4.2 0 4.2zM188.8 61.2c-.1.2-.1.3-.2.5-2.1 5.2-8.5 5.2-10.6 0-.1-.2-.1-.3-.2-.5-3.7-9.2 14.8-9.2 11 0zM223.1 70.6c-2.2 0-2.2-3.5 0-3.5s2.2 3.5 0 3.5zM224.8 138.9c-.3 0-.6.1-.9.1-1.3.1-2.9-.7-3.7-1.5-.9-.9-1.6-2.4-1.5-3.7.1-2.6 2.3-5.6 5.3-5.3.3 0 .6.1.9.1 1.4.1 2.6.5 3.7 1.5.9.9 1.6 2.4 1.5 3.7-.1 1.3-.5 2.7-1.5 3.7-1.2.8-2.3 1.2-3.8 1.4zM191.6 181.6c-.2-.5-.4-.9-.5-1.4-.3-1.7.7-3.4 2.6-3.4 1.8 0 2.9 1.7 2.6 3.4-.1.5-.2.9-.5 1.4-.7 1.6-3.5 1.6-4.2 0zM249 156.6c-2.9 0-2.9-4.4 0-4.4s2.9 4.4 0 4.4zM269.2 118.6c.7-.2 1.3-.3 2.1-.1 2.2.5 2.2 3.9 0 4.4-.8.2-1.3.1-2.1-.1-2.1-.4-2.1-3.8 0-4.2zM285.1 103.8c.2.1.4.3.6.4 4.7 3.6.1 11.6-4.7 8-.2-.1-.4-.3-.6-.4-6.1-4.6 1.8-12.6 6.5-6.5.1.2.3.4.4.6 3.6 4.7-4.4 9.4-8 4.7-.1-.2-.3-.4-.4-.6-2.7-3.5 2.6-8.9 6.2-6.2zM175.1 320.6c.3 0 .5.1.8.2 1.4.4 1.4 2.4 0 2.8-.3.1-.5.1-.8.2-1 .1-2.1-.4-2.1-1.6.1-1.2 1.1-1.8 2.1-1.6z"/></g></svg>