<svg id="Layer_1" xmlns="http://www.w3.org/2000/svg" viewBox="0 0 286.6 305.5"><style>.st0{opacity:0.4;fill:#1E52A1;}</style><path class="st0" d="M233.2 51.9C209.3 11.2 163.1 2 163.1 2s-46-10.6-84.5 16.8C40.2 46.1 4.3 37 .3 65.8s27.3 21.4 27.3 21.4-.9 6.7 1.7 13.4c0 0-2.7 13.4 4.7 30.1-.8.8-1.7 1.9-2.7 3.2-1.2 1.7-2.5 3.8-3.6 6.2-1.2 2.4-2.1 5.3-2.8 8.3-.7 3.1-1.1 6.4-1.3 9.8v5.2c.1 1.7.3 3.5.5 5.3.3 1.8.6 3.5.9 5.4.4 1.8.8 3.5 1.3 5.3.9 3.6 1.9 6.6 3 10.1 2.1 6.8 4.6 13.3 6.4 19.2 1.9 5.9 2.5 11.1 1.7 15.7-.4 2.3-1 4.4-1.7 6.2-.6 1.9-1.5 3.4-2.1 4.7-1.4 2.6-2.2 4-2.2 4l-.1.1c-.5.9-.3 2.1.6 2.8 1 .7 2.3.5 3-.4 0 0 1.1-1.4 2.9-3.9.8-1.4 2-2.9 3-4.9 1.1-2 2.2-4.3 3-7 .9-2.7 1.4-5.9 1.5-9.2 0-3.3-.2-6.7-.8-10-1.1-6.7-2.6-13.4-3.7-20-.5-3.2-1.1-6.8-1.5-9.9-.1-1.5-.3-3.1-.4-4.6 0-1.5-.1-3-.1-4.4.1-1.4.1-2.8.2-4.2.2-1.3.3-2.6.5-3.9.5-2.4 1.1-4.6 1.8-6.5.8-1.9 1.5-3.5 2.4-4.7.3-.4.6-.8.8-1.2 3 3.5 6.7 7.1 10.9 10.6-.2.5-.5 1-.7 1.6-1.7 4-3.5 9.7-4.3 16.6-.5 3.4-.7 7.1-.6 11 .1 3.9.4 7.9 1.1 12 .7 4.1 1.6 8.2 2.8 12.3.5 1.9 1.1 3.8 1.6 5.6l.8 2.9.5 2.6c.4 1.7.7 3.4.9 5.3.3 1.8.4 3.6.4 5.4.2 3.6-.2 7.2-.7 10.6-.5 3.4-1.5 6.6-2.6 9.6-1.2 2.9-2.5 5.7-4 8-1.5 2.4-3.1 4.4-4.6 6.1-1.5 1.7-3 3-4.3 4-1.3 1-2.3 1.7-3.1 2.2-.7.5-1.1.7-1.1.7l-.2.1c-.9.6-1.3 1.7-.9 2.7.5 1.1 1.8 1.6 2.9 1.1 0 0 .5-.2 1.4-.6 1-.4 2.3-1 3.9-2s3.5-2.2 5.5-3.9c2-1.6 4.1-3.7 6.2-6.2 2.1-2.5 4-5.4 5.9-8.6 1.8-3.3 3.4-6.9 4.5-10.8 1.2-3.9 2.1-8.1 2.5-12.4.3-2.1.4-4.3.4-6.5.1-2.2 0-4.4-.2-6.7l-.3-3.4-.4-3-.9-6c-.6-3.6-.9-7.2-1-10.6-.1-3.4 0-6.7.4-9.7.3-3 .9-5.8 1.6-8.3 1.2-4.4 2.7-7.8 4-10.1 4.6 2.5 9.5 4.8 15.1 7-1.1 2.4-2 5.2-2.8 8.2-.7 3.1-1.1 6.4-1.3 9.8v5.2c.1 1.7.3 3.5.5 5.3.3 1.8.6 3.5.9 5.4.4 1.8.8 3.5 1.3 5.3.9 3.6 1.9 6.6 3 10.1 2.1 6.8 4.6 13.3 6.4 19.2 1.9 5.9 2.5 11.1 1.7 15.7-.4 2.3-1 4.4-1.7 6.2-.6 1.9-1.5 3.4-2.1 4.7-1.4 2.6-2.2 4-2.2 4l-.1.1c-.5.9-.3 2.1.6 2.8 1 .7 2.3.5 3-.4 0 0 1.1-1.4 2.9-3.9.8-1.4 2-2.9 3-4.9 1.1-2 2.2-4.3 3-7 .9-2.7 1.4-5.9 1.5-9.2 0-3.3-.2-6.7-.8-10-1.1-6.7-2.6-13.4-3.7-20-.5-3.2-1.1-6.8-1.5-9.9-.1-1.5-.3-3.1-.4-4.6 0-1.5-.1-3-.1-4.4.1-1.4.1-2.8.2-4.2.2-1.3.3-2.6.5-3.9.5-2.4 1.1-4.6 1.8-6.5.8-1.9 1.5-3.5 2.4-4.7.6-1 1.2-1.7 1.7-2.3 5.4 1.6 11.1 3 17.2 4.3 6.2 1.3 12 2.3 17.5 3.1.2.8.5 1.7.7 2.8.3 1.5.3 3.3.3 5.3-.1 2-.4 4.3-1 6.7-.4 1.2-.7 2.5-1.1 3.7l-1.5 3.9c-.6 1.3-1.3 2.6-1.9 4-.8 1.3-1.5 2.7-2.3 4-1.6 2.7-3.6 5.8-5.4 8.4-3.7 5.6-7.8 11-11.6 16.7-1.9 2.8-3.5 5.8-4.8 8.8-1.2 3.1-2.1 6.2-2.4 9-.3 2.8-.3 5.4-.1 7.7.1 2.2.6 4.1.7 5.7.7 3 1.1 4.8 1.1 4.8.3 1.2 1.4 1.9 2.6 1.7 1.1-.2 1.8-1.2 1.7-2.3v-.1s-.1-1.7-.4-4.6c0-1.4-.1-3.2 0-5.2s.4-4.1 1-6.3c1.1-4.5 3.9-9 8-13.6 4-4.6 9-9.6 13.7-14.9 2.5-2.8 4.6-5.2 6.9-8 1.1-1.5 2.2-2.9 3.3-4.3l3-4.5c.9-1.5 1.8-3.1 2.6-4.7s1.5-3.2 2.2-4.7c1.2-3.2 2.2-6.4 2.8-9.5.6-3 .9-5.9.8-8.6 6 .2 11.5.1 16.6-.2.2 2.7.2 6.4-.5 10.9-.4 2.5-1 5.3-2 8.2-.9 2.9-2.1 5.9-3.6 9-1.5 3.1-3.2 6.2-5.2 9.3l-3.3 5.1-1.6 2.5-1.6 3c-1.1 2-2.1 4-2.9 6-.9 2-1.7 4-2.3 6.1-1.4 4.1-2.3 8.3-2.8 12.3-.5 4.1-.5 8-.3 11.7.4 3.7.9 7.2 1.8 10.3.9 3.1 1.9 5.9 3.1 8.2 1.1 2.4 2.4 4.3 3.4 5.8 1.1 1.5 2 2.7 2.7 3.4.7.7 1 1.1 1 1.1.8.9 2.2 1 3.1.2.8-.7.9-1.9.3-2.8l-.1-.2s-.3-.4-.8-1.1c-.5-.7-1.2-1.8-1.9-3.2-.7-1.5-1.6-3.3-2.3-5.4-.7-2.1-1.3-4.7-1.7-7.4-.4-2.8-.5-5.8-.4-9 .2-3.2.7-6.5 1.6-9.8.9-3.3 2.1-6.7 3.7-9.9.7-1.6 1.6-3.2 2.6-4.8.9-1.6 1.9-3.1 3-4.5l1.5-2.1 1.9-2.3c1.3-1.5 2.5-3 3.8-4.5 2.8-3.2 5.3-6.6 7.6-10 2.3-3.4 4.3-7 5.9-10.5 1.7-3.5 3-7 4-10.3 2.1-6.6 2.8-12.6 2.9-16.9v-1.8c5.3-1.4 10.1-3.2 14.3-5.2.1.4.2.9.3 1.4.3 1.5.3 3.3.3 5.3-.1 2-.4 4.3-1 6.7-.4 1.2-.7 2.5-1.1 3.7l-1.5 3.9c-.6 1.3-1.3 2.6-1.9 4-.8 1.3-1.5 2.7-2.3 4-1.6 2.7-3.6 5.8-5.4 8.4-3.7 5.6-7.8 11-11.6 16.7-1.9 2.8-3.5 5.8-4.8 8.8-1.2 3.1-2.1 6.2-2.4 9-.3 2.8-.3 5.4-.1 7.7.1 2.2.6 4.1.7 5.7.7 3 1.1 4.8 1.1 4.8.3 1.2 1.4 1.9 2.6 1.7 1.1-.2 1.8-1.2 1.7-2.3v-.1s-.1-1.7-.4-4.6c0-1.4-.1-3.2 0-5.2s.4-4.1 1-6.3c1.1-4.5 3.9-9 8-13.6 4-4.6 9-9.6 13.7-14.9 2.5-2.8 4.6-5.2 6.9-8 1.1-1.5 2.2-2.9 3.3-4.3l3-4.5c.9-1.5 1.8-3.1 2.6-4.7s1.5-3.2 2.2-4.7c1.2-3.2 2.2-6.4 2.8-9.5.6-3.1.9-6.1.8-8.8 0-2.7-.3-5.1-.7-7.1-.4-1.6-.7-2.9-1.1-4 13.6-12.2 16.6-25.5 16.6-25.5 5.1-5.1 7-11.6 7-11.6s25.5 19.5 33.7-8.4c8.9-28-27.6-34.3-51.5-75z"/></svg>