<svg id="Layer_1" xmlns="http://www.w3.org/2000/svg" viewBox="0 0 302.3 337.7"><style>.st0{fill:#1E52A1;}</style><path class="st0" d="M205.8 10.2c-47.1-22-94.8-1.5-94.8-1.5S62.7 27.8 44.9 76.6C27 125.4-11.2 139.5 3.2 168.1s38.1 2.4 38.1 2.4 3.4 6.6 9.9 11.2c0 0 5.9 13.8 23.1 24.4-.2 1.3-.4 2.7-.4 4.6 0 2.3.1 5 .6 7.9.5 3 1.4 6.1 2.6 9.3 1.3 3.2 3 6.5 4.9 9.7 1.1 1.5 2.1 3.2 3.3 4.7 1.2 1.5 2.4 3 3.7 4.5 1.4 1.4 2.7 2.9 4.1 4.3 1.5 1.3 3 2.7 4.5 4 3.1 2.7 5.8 4.8 9 7.3 6.1 4.8 12.5 9.2 17.7 13.4 5.4 4.2 9.2 8.5 11.3 13.1 1.1 2.3 1.8 4.6 2.3 6.7.6 2.1.8 4 1.1 5.6.3 3.2.5 5 .5 5v.1c.1 1.2 1.1 2.1 2.3 2.2 1.3 0 2.4-1 2.5-2.3 0 0 .1-2 .2-5.4-.1-1.7 0-3.8-.3-6.3-.2-2.4-.7-5.3-1.6-8.3-.9-3-2.4-6.2-4.4-9.3-2-3-4.4-6-7-8.6-5.1-5.4-10.7-10.5-15.8-15.8-2.5-2.5-5.3-5.5-7.5-8.1l-3.3-3.9c-1-1.3-1.9-2.7-2.8-4l-2.4-3.9c-.7-1.3-1.3-2.6-1.9-3.8-1.1-2.5-1.9-4.9-2.4-7.1-.5-2.2-.8-4.1-.7-5.8v-1.6c5 1.3 10.5 2.3 16.5 2.8.1.6.2 1.2.3 1.9 1 4.7 2.9 11 6.5 17.8 1.7 3.4 3.9 6.9 6.4 10.3 2.5 3.5 5.3 6.9 8.5 10.2 3.1 3.3 6.6 6.4 10.2 9.4 1.7 1.4 3.3 2.7 5 4.1l2.6 2.1 2.1 2c1.4 1.3 2.8 2.7 4.1 4.2 1.4 1.5 2.6 3 3.8 4.7 2.4 3.2 4.3 6.6 6 10 1.6 3.4 2.8 6.9 3.6 10.3.7 3.4 1.3 6.7 1.4 9.8.1 3.1 0 5.9-.4 8.4-.3 2.5-.9 4.6-1.4 6.3-.5 1.7-1 3-1.5 3.9-.4.9-.6 1.3-.6 1.3l-.1.3c-.5 1.1-.1 2.4.9 3 1.1.7 2.6.4 3.3-.8 0 0 .3-.5.9-1.4.6-.9 1.4-2.4 2.3-4.2.9-1.9 1.8-4.2 2.5-7 .8-2.8 1.4-6 1.7-9.5.4-3.5.3-7.4 0-11.5-.5-4.1-1.3-8.4-2.6-12.7-1.4-4.3-3.1-8.7-5.5-12.8-1.1-2.1-2.3-4.2-3.7-6.1-1.3-2-2.7-4-4.4-5.9l-2.4-2.9-2.3-2.4c-1.5-1.6-3.1-3.3-4.6-4.9-2.8-2.9-5.3-6-7.5-9s-4.1-6.1-5.7-9c-1.6-2.9-2.8-5.8-3.8-8.5-1.7-4.7-2.4-8.8-2.7-11.7 5.7-.6 11.7-1.6 18.1-3 .5 2.9 1.4 6 2.6 9.2 1.3 3.2 3 6.5 4.9 9.7 1.1 1.5 2.1 3.2 3.3 4.7 1.2 1.5 2.4 3 3.7 4.5 1.4 1.4 2.7 2.9 4.1 4.3 1.5 1.3 3 2.7 4.5 4 3.1 2.7 5.8 4.8 9 7.3 6.1 4.8 12.5 9.2 17.7 13.4 5.4 4.2 9.2 8.5 11.3 13.1 1.1 2.3 1.8 4.6 2.3 6.7.6 2.1.8 4 1.1 5.6.3 3.2.5 5 .5 5v.1c.1 1.2 1.1 2.1 2.3 2.2 1.3 0 2.4-1 2.5-2.3 0 0 .1-2 .2-5.4-.1-1.7 0-3.8-.3-6.3-.2-2.4-.7-5.3-1.6-8.3-.9-3-2.4-6.2-4.4-9.3-2-3-4.4-6-7-8.6-5.1-5.4-10.7-10.5-15.8-15.8-2.5-2.5-5.3-5.5-7.5-8.1l-3.3-3.9c-1-1.3-1.9-2.7-2.8-4l-2.4-3.9c-.7-1.3-1.3-2.6-1.9-3.8-1.1-2.5-1.9-4.9-2.4-7.1-.5-2.2-.8-4.1-.8-5.8 0-1.2 0-2.2.2-3.1 5.9-1.9 12-4.2 18.4-6.8 6.4-2.6 12.3-5.4 17.8-8.1.7.6 1.5 1.2 2.3 2.1 1.2 1.2 2.3 2.7 3.5 4.6 1.2 1.9 2.3 4.2 3.3 6.7.4 1.3.9 2.7 1.3 4.1.3 1.5.7 3 1.1 4.5.3 1.6.5 3.2.8 4.8.1 1.7.3 3.4.4 5.1.2 3.4.3 7.5.4 11 .1 7.4-.2 14.9-.1 22.4 0 3.7.5 7.5 1.1 11 .8 3.6 1.9 6.9 3.5 9.7 1.5 2.8 3.1 5.1 4.7 7 1.5 2 3.1 3.4 4.2 4.7 2.5 2.3 3.9 3.7 3.9 3.7 1 .9 2.5.8 3.4-.1.8-.9.9-2.2.1-3.1l-.1-.1s-1.2-1.4-3.2-3.9c-.9-1.3-2.1-2.8-3.2-4.7-1.1-1.8-2.2-4-3.1-6.4-1.8-4.8-2.1-10.5-1.2-17.3.8-6.7 2.2-14.3 3.1-22 .5-4 .9-7.5 1.2-11.6l.3-6c0-2-.1-4-.1-6-.1-2-.4-3.9-.5-5.9-.3-1.9-.7-3.8-1-5.7-.9-3.7-2-7.2-3.4-10.4-1.4-3.1-2.9-5.9-4.6-8.3 5.6-3.5 10.5-7 14.9-10.6 1.9 2.3 4.2 5.6 6.3 10.2 1.2 2.5 2.4 5.5 3.3 8.7 1 3.2 1.8 6.7 2.4 10.4.6 3.7 1 7.6 1 11.7.1 2.2.1 4.4.2 6.7l.1 3.3.4 3.7c.2 2.5.6 5 1.1 7.3.4 2.4 1 4.7 1.7 7 1.3 4.6 3.1 8.9 5.2 12.9s4.5 7.6 7.1 10.8c2.6 3.1 5.3 5.9 8.1 8.2 2.7 2.3 5.4 4.1 8 5.5 2.5 1.5 4.8 2.4 6.8 3.2 1.9.7 3.5 1.2 4.6 1.4 1.1.3 1.7.4 1.7.4 1.3.3 2.6-.5 2.9-1.8.3-1.2-.4-2.4-1.5-2.8l-.3-.1s-.5-.2-1.4-.5c-.9-.3-2.2-.9-3.8-1.7-1.6-.9-3.5-2-5.5-3.5s-4.1-3.4-6.2-5.7c-2.1-2.2-4.1-4.9-6-7.9-1.8-3-3.4-6.3-4.7-9.9-1.2-3.6-2.3-7.4-2.8-11.3-.3-1.9-.6-3.9-.6-6-.2-2-.2-4-.1-5.9l.1-2.9.3-3.3c.2-2.2.4-4.3.7-6.4.5-4.6.7-9.3.6-13.8-.1-4.5-.5-9-1.2-13.2-.7-4.2-1.6-8.2-2.8-11.8-2.3-7.3-5.3-13.2-7.9-17.2-.4-.6-.7-1.1-1.1-1.6 3.9-4.6 7.2-9.2 9.7-13.6.4.3.7.7 1.1 1.1 1.2 1.2 2.3 2.7 3.5 4.6 1.2 1.9 2.3 4.2 3.3 6.7.4 1.3.9 2.7 1.3 4.1.3 1.5.7 3 1.1 4.5.3 1.6.5 3.2.8 4.8.1 1.7.3 3.4.4 5.1.2 3.4.3 7.5.4 11 .1 7.4-.2 14.9-.1 22.4 0 3.7.5 7.5 1.1 11 .8 3.6 1.9 6.9 3.5 9.7 1.5 2.8 3.1 5.1 4.7 7 1.5 2 3.1 3.4 4.2 4.7 2.5 2.3 3.9 3.7 3.9 3.7 1 .9 2.5.8 3.4-.1.8-.9.9-2.2.1-3.1l-.1-.1s-1.2-1.4-3.2-3.9c-.9-1.3-2.1-2.8-3.2-4.7-1.1-1.8-2.2-4-3.1-6.4-1.8-4.8-2.1-10.5-1.2-17.3.8-6.7 2.2-14.3 3.1-22 .5-4 .9-7.5 1.2-11.6l.3-6c0-2-.1-4-.1-6-.1-2-.4-3.9-.5-5.9-.3-1.9-.7-3.8-1-5.7-.9-3.7-2-7.2-3.4-10.4s-3-6.1-4.7-8.5c-1.7-2.4-3.5-4.4-5.1-6-1.3-1.3-2.5-2.2-3.5-2.9 4.7-19.6-.8-33.5-.8-33.5 1.4-7.8-.8-14.9-.8-14.9s35.3 1.8 25.3-28.6-46.5-13.4-93.6-35.4z"/></svg>