<svg id="Layer_1" xmlns="http://www.w3.org/2000/svg" viewBox="0 0 348.4 346.3"><style>.st0{opacity:0.4;fill:#1E52A1;}</style><path class="st0" d="M337.3 333.8c17.7-40.6 1.8-104.1-2.9-126.5-4.3-20.5-33.3-15.8-44.2-13.2-.2-6.7-1.2-13.1-2.6-19.2 11.5-2.8 28.6-7.7 33.6-12.9 7.8-8.1 34.1-29.6 25.4-46-8.7-16.5-41.2-6.9-52.3-5.1-7.2 1.2-20.9 12.5-29.7 20.4-4.2-4.6-9-9.1-14.4-13 8.3-7.5 28.6-28.7 14.1-43.9-15.8-16.5-59.1-65.6-102.6-74-5.7-1.1-9.2 6.1-4.9 10 12.2 11.1 29.9 27.8 35.8 37.4 8.2 13.4 27.1 29.4 16.9 53.6-18.4-2.6-39.6.4-62.9 12.7-38.9 20.5-67.4 53.6-80.7 86.8 0 0-63-3.6-65.8 13.9-2.5 15.3 37.3 23.4 57.8 18.7-.9 11.5.3 22.6 4 32.5 6.1 8.6 14.5 15.9 24.5 21.7C70.9 301.5 55 338.9 69 345.5c16.1 7.6 48.8-46.3 48.8-46.3 34.9 7.9 78.3 3.2 117.2-17.3 23.3-12.3 37.8-28 46.1-44.7 25.8 5.2 28.3 29.9 34.6 44.3 4.6 10.3 8.4 34.3 10.5 50.7.9 5.8 8.8 6.9 11.1 1.6z"/></svg>