<svg id="Layer_1" xmlns="http://www.w3.org/2000/svg" xmlns:xlink="http://www.w3.org/1999/xlink" viewBox="0 0 289.4 70.9"><style>.st0{clip-path:url(#SVGID_2_);fill:#471E02;} .st1{fill:#471E02;} .st2{clip-path:url(#SVGID_4_);fill:url(#SVGID_5_);} .st3{clip-path:url(#SVGID_4_);fill:url(#SVGID_6_);} .st4{clip-path:url(#SVGID_4_);fill:url(#SVGID_7_);} .st5{clip-path:url(#SVGID_4_);fill:url(#SVGID_8_);} .st6{fill:#F9F9F9;}</style><g id="PLAY_3_"><defs><path id="SVGID_1_" d="M47.8 26.9L33 18.3S6 2.7 4.5 1.8C2.8.9 1.3 1.5 1.3 3.4v67.1c0 1.4 1.1 2.1 2.5 1.3C5.1 71 33 55 33 55l14.8-8.5s12.6-7.2 14.2-8.2c1.7-1 1.5-2.3.1-3-1.4-.9-14.3-8.4-14.3-8.4z"/></defs><use xlink:href="#SVGID_1_" overflow="visible" fill="#471E02"/><clipPath id="SVGID_2_"><use xlink:href="#SVGID_1_" overflow="visible"/></clipPath><path class="st0" d="M1.3.3V73l36.6-36.4z"/><path class="st0" d="M47.8 26.9L33 18.3 1.3 0v.3l36.6 36.3zM1.3 73v.3L33 55l14.8-8.6-9.9-9.8z"/><path class="st0" d="M47.8 26.9l-9.9 9.7 9.9 9.8 16.9-9.8z"/></g><path class="st1" d="M232 50.9c-1.4 0-2.6-.3-3.8-.8-1.1-.5-2.1-1.3-2.9-2.3h-.2c.2 1.2.2 2.4.2 3.5V60h-3.2V29.3h2.6l.4 2.9h.2c.8-1.2 1.8-2 2.9-2.5 1.1-.5 2.3-.8 3.8-.8 2.8 0 5 1 6.5 2.9s2.3 4.6 2.3 8.1-.8 6.2-2.3 8.1c-1.6 1.9-3.7 2.9-6.5 2.9zm-.4-19.2c-2.2 0-3.7.6-4.7 1.8-1 1.2-1.5 3.1-1.5 5.7v.7c0 3 .5 5.1 1.5 6.4 1 1.3 2.6 1.9 4.8 1.9 1.8 0 3.3-.7 4.3-2.2 1-1.5 1.6-3.5 1.6-6.1 0-2.6-.5-4.7-1.6-6.1-1.1-1.4-2.6-2.1-4.4-2.1zM248.2 50.5H245v-30h3.2v30zM266.6 50.5l-.6-3h-.2c-1.1 1.3-2.1 2.2-3.2 2.7-1 .5-2.4.7-3.9.7-2.1 0-3.7-.5-4.9-1.6-1.2-1.1-1.8-2.6-1.8-4.6 0-4.3 3.4-6.5 10.2-6.7l3.6-.1v-1.3c0-1.7-.4-2.9-1.1-3.7-.7-.8-1.9-1.2-3.4-1.2-1.8 0-3.8.5-6 1.6l-1-2.4c1-.6 2.2-1 3.4-1.3 1.2-.3 2.5-.5 3.7-.5 2.5 0 4.4.6 5.6 1.7 1.2 1.1 1.8 2.9 1.8 5.4v14.4h-2.2zm-7.2-2.3c2 0 3.6-.5 4.7-1.6s1.7-2.6 1.7-4.6v-1.9l-3.2.1c-2.5.1-4.4.5-5.5 1.2-1.1.7-1.7 1.8-1.7 3.3 0 1.2.3 2 1.1 2.6.7.6 1.6.9 2.9.9zM270.9 29.3h3.4l4.6 12.1c1 2.8 1.6 4.7 1.9 6h.2c.2-.7.5-1.8 1.1-3.4.5-1.6 2.3-6.5 5.2-14.6h3.4l-9.1 24.1c-.9 2.4-2 4.1-3.2 5.1-1.2 1-2.7 1.5-4.4 1.5-1 0-1.9-.1-2.9-.3v-2.6c.7.2 1.5.2 2.4.2 2.2 0 3.8-1.2 4.7-3.7l1.2-3-8.5-21.4z"/><g><path class="st1" d="M172.7 31.3c1 .8 3.1 2.6 3.1 6 0 3.3-1.9 4.8-3.7 6.3-.6.6-1.2 1.2-1.2 2.2 0 1 .7 1.5 1.2 1.9l1.6 1.2c1.9 1.6 3.7 3.1 3.7 6.2 0 4.2-4 8.4-11.6 8.4-6.4 0-9.5-3.1-9.5-6.3 0-1.6.8-3.8 3.4-5.4 2.7-1.7 6.5-1.9 8.4-2-.6-.8-1.3-1.6-1.3-3 0-.8.2-1.2.4-1.7-.5 0-1 .1-1.4.1-4.7 0-7.3-3.5-7.3-6.9 0-2 .9-4.3 2.8-5.9 2.5-2.1 5.5-2.4 7.9-2.4h9.1l-2.8 1.6h-2.8zm-3.1 19.6h-1c-.4 0-2.8.1-4.6.7-1 .4-3.8 1.4-3.8 4.6 0 3.1 3.1 5.4 7.8 5.4 4.2 0 6.5-2 6.5-4.8-.1-2.3-1.6-3.5-4.9-5.9zm1.3-8.4c1-1 1.1-2.4 1.1-3.2 0-3.2-1.9-8.1-5.6-8.1-1.2 0-2.4.6-3.1 1.5-.8.9-1 2.1-1 3.3 0 3 1.7 7.9 5.5 7.9 1.2-.1 2.4-.7 3.1-1.4zM144.9 50.2c-7 0-10.8-5.5-10.8-10.4 0-5.8 4.7-10.7 11.4-10.7 6.5 0 10.5 5.1 10.5 10.4.1 5.2-3.9 10.7-11.1 10.7zm5.5-3.6c1.1-1.4 1.3-3.2 1.3-4.9 0-3.9-1.9-11.3-7.3-11.3-1.5 0-2.9.6-4 1.5-1.7 1.5-2 3.5-2 5.4 0 4.4 2.2 11.6 7.5 11.6 1.7 0 3.5-.8 4.5-2.3zM121 50.2c-7 0-10.8-5.5-10.8-10.4 0-5.8 4.7-10.7 11.4-10.7 6.5 0 10.5 5.1 10.5 10.4.1 5.2-4 10.7-11.1 10.7zm5.5-3.6c1.1-1.4 1.3-3.2 1.3-4.9 0-3.9-1.9-11.3-7.3-11.3-1.5 0-2.9.6-4 1.5-1.7 1.5-2 3.5-2 5.4 0 4.4 2.2 11.6 7.5 11.6 1.7 0 3.5-.8 4.5-2.3zM106.8 49.5l-6.3 1.5c-2.6.4-4.9.8-7.3.8-12.3 0-16.9-9-16.9-16.1 0-8.6 6.6-16.6 17.9-16.6 2.4 0 4.7.4 6.8.9 3.3.9 4.9 2.1 5.9 2.8l-3.7 3.5-1.6.4 1.1-1.8c-1.5-1.5-4.3-4.2-9.5-4.2-7 0-12.3 5.3-12.3 13.1 0 8.3 6 16.2 15.7 16.2 2.8 0 4.3-.6 5.6-1.1v-7.1l-6.7.4 3.5-1.9h9.4l-1.2 1.1c-.3.3-.4.4-.4.7 0 .4-.1 1.7-.1 2.1v5.3z"/><path class="st1" d="M186.7 48.3c-1.5-.1-1.8-.4-1.8-2.1V21v-.3c.2-1.6.6-1.8 2-2.6h-6.3l-3.3 1.6h3.4v27.4c0 .9-.2 1-1.2 2.4h7.9l1.6-1c-.7-.1-1.5-.2-2.3-.2zM204.8 48.7c-.5.3-1 .6-1.5.8-1.5.7-3 .8-4.3.8-1.4 0-3.6-.1-5.9-1.7-3.1-2.2-4.5-6-4.5-9.3 0-6.8 5.6-10.2 10.1-10.2 1.6 0 3.2.4 4.5 1.2 2.2 1.5 2.8 3.3 3.1 4.4l-10.4 4.2-3.4.3c1.1 5.6 4.9 8.9 9.1 8.9 2.2 0 3.9-.8 5.4-1.5l-2.2 2.1zm-4.1-13.2c.8-.3 1.3-.6 1.3-1.2 0-1.8-2-3.8-4.4-3.8-1.8 0-5.1 1.4-5.1 6.1 0 .7.1 1.5.1 2.3l8.1-3.4zM209.1 29.4v2.9h-.4v-2.9h-1v-.3h2.3v.3h-.9zM213 32.3v-2.9l-.9 2.9h-.3l-.9-2.9v2.9h-.3v-3.2h.6l.8 2.6.8-2.6h.6v3.2h-.4z"/></g><g><path class="st1" d="M85 10.4h-2.2c0-.3-.2-1.2-.6-2.6H79c-.4 1.4-.6 2.3-.6 2.6h-2.1c0-.2.5-1.6 1.6-4.4 1.1-2.8 1.6-4.3 1.6-4.6h2.6c0 .3.5 1.8 1.5 4.5 1 2.8 1.4 4.3 1.4 4.5zm-3.1-3.9c-.8-2.4-1.2-3.7-1.2-3.8h-.1c0 .2-.4 1.5-1.2 3.8h2.5zM93.9 10.4h-1.7c0-.2-.6-1.2-1.9-3C89 5.5 88.2 4.2 88 3.5c.1 1 .2 1.9.2 2.7 0 1.1 0 2.5.1 4.1h-1.7c.1-1.4.1-3 .1-4.7 0-1.7 0-3.1-.1-4.3h2c0 .2.6 1.2 1.7 2.9 1.2 1.8 1.9 3 2.1 3.7h.1c-.1-1-.2-1.9-.2-2.8 0-1.2 0-2.5-.1-3.8h1.7c-.1 1.1-.1 2.6-.1 4.3 0 1.9.1 3.4.1 4.8zM103.9 5.6c0 1.3-.4 2.4-1.3 3.4-.8 1-2 1.5-3.5 1.5-.7 0-1.6 0-2.8-.1.1-1.4.1-3 .1-4.7 0-1.7 0-3.1-.1-4.3H99.2c1.7 0 2.9.4 3.6 1.2.7.9 1.1 1.9 1.1 3zm-1.9.3c0-.9-.3-1.6-.8-2.2-.5-.6-1.3-.9-2.4-.9-.2 0-.5 0-.8.1 0 .9.1 1.9.1 2.9 0 1.1 0 2.2.1 3.3.3.1.6.1.9.1 1 0 1.7-.3 2.2-.9.5-.7.7-1.5.7-2.4zM113.1 10.4h-2c-.5-1.6-.9-2.6-1.2-3-.3-.4-.7-.6-1.4-.6h-.8c0 1.2 0 2.4.1 3.6h-1.9c.1-1.4.1-3 .1-4.7 0-1.7 0-3.1-.1-4.3h3.3c2.1 0 3.2.7 3.2 2.2 0 1.1-.6 1.9-1.8 2.4v.1c.5.1.9.5 1.2 1.1.3.6.7 1.7 1.3 3.2zm-2.6-6.3c0-.9-.6-1.4-1.8-1.4-.4 0-.8 0-1.1.1.1.7.1 1.6.1 2.8h.6c1.5 0 2.2-.5 2.2-1.5zM123 5.8c0 1.4-.4 2.6-1.3 3.5-.9.9-1.9 1.4-3.2 1.4-1.2 0-2.2-.4-3-1.3-.8-.9-1.2-1.9-1.2-3.2 0-1.4.4-2.6 1.3-3.5.9-.9 1.9-1.4 3.2-1.4 1.2 0 2.2.4 3 1.3.8.8 1.2 1.9 1.2 3.2zm-1.9.2c0-1-.2-1.7-.7-2.3-.5-.6-1.1-.9-1.8-.9s-1.2.3-1.7.9c-.5.6-.7 1.4-.7 2.3 0 1 .2 1.7.7 2.3.5.6 1.1.9 1.8.9s1.2-.3 1.7-.9c.5-.6.7-1.4.7-2.3zM126.9 10.4h-2c.1-1.4.1-3 .1-4.7 0-1.7 0-3.1-.1-4.3h2c-.1 1.2-.1 2.6-.1 4.3 0 1.8 0 3.3.1 4.7zM136.9 5.6c0 1.3-.4 2.4-1.3 3.4-.8 1-2 1.5-3.5 1.5-.7 0-1.6 0-2.8-.1.1-1.4.1-3 .1-4.7 0-1.7 0-3.1-.1-4.3H132.2c1.7 0 2.9.4 3.6 1.2.7.9 1.1 1.9 1.1 3zm-1.9.3c0-.9-.3-1.6-.8-2.2-.5-.6-1.3-.9-2.4-.9-.2 0-.5 0-.8.1 0 .9.1 1.9.1 2.9 0 1.1 0 2.2.1 3.3.3.1.6.1.9.1 1 0 1.7-.3 2.2-.9.5-.7.7-1.5.7-2.4zM150.1 10.4h-2.2c0-.3-.2-1.2-.6-2.6h-3.2c-.4 1.4-.6 2.3-.6 2.6h-2.1c0-.2.5-1.6 1.6-4.4 1.1-2.8 1.6-4.3 1.6-4.6h2.6c0 .3.5 1.8 1.5 4.5 1 2.8 1.4 4.3 1.4 4.5zM147 6.5c-.8-2.4-1.2-3.7-1.2-3.8h-.1c0 .2-.4 1.5-1.2 3.8h2.5zM158.2 3.8c0 1.1-.4 1.9-1.2 2.4-.8.5-1.8.8-3 .8h-.5c0 .9 0 2 .1 3.4h-1.9c.1-1.3.1-2.9.1-4.7 0-1.7 0-3.1-.1-4.3h3.5c.9 0 1.6.2 2.2.6s.8 1 .8 1.8zm-1.8.4c0-1-.7-1.5-2-1.5-.3 0-.7 0-1 .1.1.9.1 1.9.1 2.9h.4c1.7.1 2.5-.4 2.5-1.5zM166.5 3.8c0 1.1-.4 1.9-1.2 2.4-.8.5-1.8.8-3 .8h-.5c0 .9 0 2 .1 3.4H160c.1-1.3.1-2.9.1-4.7 0-1.7 0-3.1-.1-4.3h3.5c.9 0 1.6.2 2.2.6.5.4.8 1 .8 1.8zm-1.8.4c0-1-.7-1.5-2-1.5-.3 0-.7 0-1 .1.1.9.1 1.9.1 2.9h.4c1.6.1 2.5-.4 2.5-1.5zM180 5.8c0 1.4-.4 2.6-1.3 3.5-.9.9-1.9 1.4-3.2 1.4-1.2 0-2.2-.4-3-1.3-.8-.9-1.2-1.9-1.2-3.2 0-1.4.4-2.6 1.3-3.5.9-.9 1.9-1.4 3.2-1.4 1.2 0 2.2.4 3 1.3.8.8 1.2 1.9 1.2 3.2zm-1.9.2c0-1-.2-1.7-.7-2.3-.5-.6-1.1-.9-1.8-.9s-1.2.3-1.7.9c-.5.6-.7 1.4-.7 2.3 0 1 .2 1.7.7 2.3.5.6 1.1.9 1.8.9s1.2-.3 1.7-.9c.4-.6.7-1.4.7-2.3zM189.3 10.4h-1.7c0-.2-.6-1.2-1.9-3-1.3-1.9-2.1-3.2-2.3-3.9h-.1c.1 1 .2 1.9.2 2.7 0 1.1 0 2.5.1 4.1h-1.7c.1-1.4.1-3 .1-4.7 0-1.7 0-3.1-.1-4.3h2c0 .2.6 1.2 1.7 2.9 1.2 1.8 1.9 3 2.1 3.7h.1c-.1-1-.2-1.9-.2-2.8 0-1.2 0-2.5-.1-3.8h1.7c-.1 1.1-.1 2.6-.1 4.3.1 1.9.1 3.4.2 4.8z"/></g><g><g id="PLAY_1_"><defs><path id="SVGID_3_" d="M46.5 25.6l-14.8-8.5S4.7 1.5 3.2.6C1.6-.3 0 .2 0 2.2v67.1c0 1.4 1.1 2.1 2.5 1.3s29.2-16.9 29.2-16.9l14.8-8.5S59.1 38 60.7 37c1.7-1 1.5-2.3.1-3-1.4-.9-14.3-8.4-14.3-8.4z"/></defs><clipPath id="SVGID_4_"><use xlink:href="#SVGID_3_" overflow="visible"/></clipPath><linearGradient id="SVGID_5_" gradientUnits="userSpaceOnUse" x1="18.328" y1="-.959" x2="18.328" y2="71.734"><stop offset="0" stop-color="#257DB0"/><stop offset=".208" stop-color="#3C90B3"/><stop offset=".742" stop-color="#73BDB9"/><stop offset="1" stop-color="#89CEBC"/></linearGradient><path class="st2" d="M0-1V71.7l36.7-36.3z"/><linearGradient id="SVGID_6_" gradientUnits="userSpaceOnUse" y1="17.082" x2="46.502" y2="17.082"><stop offset="0" stop-color="#51BFAC"/><stop offset="1" stop-color="#DEE899"/></linearGradient><path class="st3" d="M46.5 25.6l-14.8-8.5L0-1.2v.2l36.7 36.4z"/><linearGradient id="SVGID_7_" gradientUnits="userSpaceOnUse" x1="23.251" y1="35.388" x2="23.251" y2="71.999"><stop offset="0" stop-color="#EB403D"/><stop offset=".194" stop-color="#D64252"/><stop offset=".737" stop-color="#9F4887"/><stop offset="1" stop-color="#894A9C"/></linearGradient><path class="st4" d="M0 71.7v.3l31.7-18.3 14.8-8.6-9.8-9.7z"/><linearGradient id="SVGID_8_" gradientUnits="userSpaceOnUse" x1="50.034" y1="25.625" x2="50.034" y2="45.15"><stop offset="0" stop-color="#F48779"/><stop offset=".612" stop-color="#FAB076"/><stop offset="1" stop-color="#FDC674"/></linearGradient><path class="st5" d="M46.5 25.6l-9.8 9.8 9.8 9.7 16.9-9.7z"/></g><path class="st6" d="M230.8 49.6c-1.4 0-2.6-.3-3.8-.8-1.1-.5-2.1-1.3-2.9-2.3h-.2c.2 1.2.2 2.4.2 3.5v8.7h-3.2V28.1h2.6l.5 2.9h.2c.8-1.2 1.8-2 2.9-2.5 1.1-.5 2.3-.8 3.8-.8 2.8 0 5 1 6.5 2.9s2.3 4.6 2.3 8.1-.8 6.2-2.3 8.1c-1.7 1.8-3.9 2.8-6.6 2.8zm-.5-19.2c-2.2 0-3.7.6-4.7 1.8-1 1.2-1.5 3.1-1.5 5.7v.7c0 3 .5 5.1 1.5 6.4 1 1.3 2.6 1.9 4.8 1.9 1.8 0 3.3-.7 4.3-2.2 1-1.5 1.6-3.5 1.6-6.1 0-2.6-.5-4.7-1.6-6.1-1.1-1.4-2.5-2.1-4.4-2.1zM247 49.2h-3.2v-30h3.2v30zM265.4 49.2l-.6-3h-.2c-1.1 1.3-2.1 2.2-3.2 2.7-1 .5-2.4.7-3.9.7-2.1 0-3.7-.5-4.9-1.6-1.2-1.1-1.8-2.6-1.8-4.6 0-4.3 3.4-6.5 10.2-6.7l3.6-.1v-1.3c0-1.7-.4-2.9-1.1-3.7-.7-.8-1.9-1.2-3.4-1.2-1.8 0-3.8.5-6 1.6l-1-2.4c1-.6 2.2-1 3.4-1.3 1.2-.3 2.5-.5 3.7-.5 2.5 0 4.4.6 5.6 1.7 1.2 1.1 1.8 2.9 1.8 5.4v14.4h-2.2zm-7.3-2.2c2 0 3.6-.5 4.7-1.6s1.7-2.6 1.7-4.6v-1.9l-3.2.1c-2.5.1-4.4.5-5.5 1.2-1.1.7-1.7 1.8-1.7 3.3 0 1.2.3 2 1.1 2.6.7.6 1.7.9 2.9.9zM269.6 28.1h3.4l4.6 12.1c1 2.8 1.6 4.7 1.9 6h.2c.2-.7.5-1.8 1.1-3.4.5-1.6 2.3-6.5 5.2-14.6h3.4l-9.1 24.1c-.9 2.4-2 4.1-3.2 5.1-1.2 1-2.7 1.5-4.4 1.5-1 0-1.9-.1-2.9-.3V56c.7.2 1.5.2 2.4.2 2.2 0 3.8-1.2 4.7-3.7l1.2-3-8.5-21.4z"/><g><path class="st6" d="M171.5 30c1 .8 3.1 2.6 3.1 6 0 3.3-1.9 4.8-3.7 6.3-.6.6-1.2 1.2-1.2 2.2 0 1 .7 1.5 1.2 1.9l1.6 1.2c1.9 1.6 3.7 3.1 3.7 6.2 0 4.2-4 8.4-11.6 8.4-6.4 0-9.5-3.1-9.5-6.3 0-1.6.8-3.8 3.4-5.4 2.7-1.7 6.5-1.9 8.4-2-.6-.8-1.3-1.6-1.3-3 0-.8.2-1.2.4-1.7-.5 0-1 .1-1.4.1-4.7 0-7.3-3.5-7.3-6.9 0-2 .9-4.3 2.8-5.9 2.5-2.1 5.5-2.4 7.9-2.4h9.1l-2.8 1.6h-2.8zm-3.2 19.7h-1c-.4 0-2.8.1-4.6.7-1 .4-3.8 1.4-3.8 4.6 0 3.1 3.1 5.4 7.8 5.4 4.2 0 6.5-2 6.5-4.8-.1-2.4-1.5-3.5-4.9-5.9zm1.3-8.4c1-1 1.1-2.4 1.1-3.2 0-3.2-1.9-8.1-5.6-8.1-1.2 0-2.4.6-3.1 1.5-.8.9-1 2.1-1 3.3 0 3 1.7 7.9 5.5 7.9 1.2-.2 2.4-.7 3.1-1.4zM143.6 49c-7 0-10.8-5.5-10.8-10.4 0-5.8 4.7-10.7 11.4-10.7 6.5 0 10.5 5.1 10.5 10.4.1 5.1-3.9 10.7-11.1 10.7zm5.5-3.6c1.1-1.4 1.3-3.2 1.3-4.9 0-3.9-1.9-11.3-7.3-11.3-1.5 0-2.9.6-4 1.5-1.7 1.5-2 3.5-2 5.4 0 4.4 2.2 11.6 7.5 11.6 1.8-.1 3.5-.9 4.5-2.3zM119.7 49c-7 0-10.8-5.5-10.8-10.4 0-5.8 4.7-10.7 11.4-10.7 6.5 0 10.5 5.1 10.5 10.4.1 5.1-3.9 10.7-11.1 10.7zm5.5-3.6c1.1-1.4 1.3-3.2 1.3-4.9 0-3.9-1.9-11.3-7.3-11.3-1.5 0-2.9.6-4 1.5-1.7 1.5-2 3.5-2 5.4 0 4.4 2.2 11.6 7.5 11.6 1.7-.1 3.5-.9 4.5-2.3zM105.6 48.3l-6.3 1.5c-2.6.4-4.9.8-7.3.8-12.3 0-16.9-9-16.9-16.1 0-8.6 6.6-16.6 17.9-16.6 2.4 0 4.7.4 6.8.9 3.3.9 4.9 2.1 5.9 2.8l-3.7 3.5-1.6.4 1.1-1.8c-1.5-1.5-4.3-4.2-9.5-4.2-7 0-12.3 5.3-12.3 13.1 0 8.3 6 16.2 15.7 16.2 2.8 0 4.3-.6 5.6-1.1v-7.1l-6.7.4 3.5-1.9h9.4l-1.2 1.1c-.3.3-.4.4-.4.7 0 .4-.1 1.7-.1 2.1v5.3z"/><path class="st6" d="M185.5 47c-1.5-.1-1.8-.4-1.8-2.1V19.7v-.3c.2-1.6.6-1.8 2-2.6h-6.3l-3.3 1.6h3.4v27.4c0 .9-.2 1-1.2 2.4h7.9l1.6-1c-.8-.1-1.6-.1-2.3-.2zM203.5 47.4c-.5.3-1 .6-1.5.8-1.5.7-3 .8-4.3.8-1.4 0-3.6-.1-5.9-1.7-3.1-2.2-4.5-6-4.5-9.3 0-6.8 5.6-10.2 10.1-10.2 1.6 0 3.2.4 4.5 1.2 2.2 1.5 2.8 3.3 3.1 4.4l-10.4 4.2-3.4.3c1.1 5.6 4.9 8.9 9.1 8.9 2.2 0 3.9-.8 5.4-1.5l-2.2 2.1zm-4.1-13.1c.8-.3 1.3-.6 1.3-1.2 0-1.8-2-3.8-4.4-3.8-1.8 0-5.1 1.4-5.1 6.1 0 .7.1 1.5.1 2.3l8.1-3.4zM207.8 28.1V31h-.4v-2.9h-1v-.3h2.3v.3h-.9zM211.8 31v-2.9l-.9 2.9h-.3l-.9-2.9V31h-.3v-3.2h.6l.8 2.6.8-2.6h.6V31h-.4z"/></g><g><path class="st6" d="M83.8 9.2h-2.2c0-.3-.2-1.2-.6-2.6h-3.2c-.4 1.4-.6 2.3-.6 2.6H75c0-.2.5-1.6 1.6-4.4C77.7 2 78.2.5 78.2.2h2.6c0 .3.5 1.8 1.5 4.5s1.5 4.2 1.5 4.5zm-3.2-3.9c-.8-2.4-1.2-3.7-1.2-3.8h-.1c0 .2-.4 1.5-1.2 3.8h2.5zM92.7 9.2H91c0-.2-.6-1.2-1.9-3C87.8 4.3 87 3 86.8 2.3h-.1c.1 1 .2 1.9.2 2.7 0 1.1 0 2.5.1 4.1h-1.7c.1-1.4.1-3 .1-4.7 0-1.7 0-3.1-.1-4.3h2c0 .2.6 1.2 1.7 2.9 1.2 1.8 1.9 3 2.1 3.7h.1c-.1-.9-.2-1.8-.2-2.7 0-1.2 0-2.5-.1-3.8h1.7c-.1 1.1-.1 2.6-.1 4.3.1 1.7.1 3.3.2 4.7zM102.7 4.4c0 1.3-.4 2.4-1.3 3.4-.8 1-2 1.5-3.5 1.5-.7 0-1.6 0-2.8-.1.1-1.4.1-3 .1-4.7 0-1.7 0-3.1-.1-4.3H98c1.7 0 2.9.4 3.6 1.2.7.8 1.1 1.8 1.1 3zm-1.9.3c0-.9-.3-1.6-.8-2.2-.5-.6-1.3-.9-2.4-.9-.2 0-.5 0-.8.1 0 .9.1 1.9.1 2.9 0 1.1 0 2.2.1 3.3.3.1.6.1.9.1 1 0 1.7-.3 2.2-.9.4-.8.7-1.5.7-2.4zM111.9 9.2h-2c-.5-1.6-.9-2.6-1.2-3-.3-.4-.7-.6-1.4-.6h-.8c0 1.2 0 2.4.1 3.6h-1.9c.1-1.4.1-3 .1-4.7 0-1.7 0-3.1-.1-4.3h3.3c2.1 0 3.2.7 3.2 2.2 0 1.1-.6 1.9-1.8 2.4v.1c.5.1.9.5 1.2 1.1.2.5.7 1.6 1.3 3.2zm-2.6-6.4c0-.9-.6-1.4-1.8-1.4-.4 0-.8 0-1.1.1.1.7.1 1.6.1 2.8h.6c1.5.1 2.2-.4 2.2-1.5zM121.8 4.5c0 1.4-.4 2.6-1.3 3.5-.9.9-1.9 1.4-3.2 1.4-1.2 0-2.2-.4-3-1.3-.8-.9-1.2-1.9-1.2-3.2 0-1.4.4-2.6 1.3-3.5.9-.9 1.9-1.4 3.2-1.4 1.2 0 2.2.4 3 1.3.7.8 1.2 1.9 1.2 3.2zm-2 .2c0-1-.2-1.7-.7-2.3-.5-.6-1.1-.9-1.8-.9s-1.2.3-1.7.9c-.5.6-.7 1.4-.7 2.3 0 1 .2 1.7.7 2.3.5.6 1.1.9 1.8.9s1.2-.3 1.7-.9c.5-.6.7-1.4.7-2.3zM125.6 9.2h-2c.1-1.4.1-3 .1-4.7 0-1.7 0-3.1-.1-4.3h2c-.1 1.2-.1 2.6-.1 4.3.1 1.7.1 3.3.1 4.7zM135.6 4.4c0 1.3-.4 2.4-1.3 3.4-.8 1-2 1.5-3.5 1.5-.7 0-1.6 0-2.8-.1.1-1.4.1-3 .1-4.7 0-1.7 0-3.1-.1-4.3H130.9c1.7 0 2.9.4 3.6 1.2.8.8 1.1 1.8 1.1 3zm-1.8.3c0-.9-.3-1.6-.8-2.2-.5-.6-1.3-.9-2.4-.9-.2 0-.5 0-.8.1 0 .9.1 1.9.1 2.9 0 1.1 0 2.2.1 3.3.3.1.6.1.9.1 1 0 1.7-.3 2.2-.9.4-.8.7-1.5.7-2.4zM148.9 9.2h-2.2c0-.3-.2-1.2-.6-2.6h-3.2c-.4 1.4-.6 2.3-.6 2.6h-2.1c0-.2.5-1.6 1.6-4.4 1.1-2.8 1.6-4.3 1.6-4.6h2.6c0 .3.5 1.8 1.5 4.5.9 2.7 1.4 4.2 1.4 4.5zm-3.2-3.9c-.8-2.4-1.2-3.7-1.2-3.8h-.1c0 .2-.4 1.5-1.2 3.8h2.5zM156.9 2.6c0 1.1-.4 1.9-1.2 2.4-.8.5-1.8.8-3 .8h-.5c0 .9 0 2 .1 3.4h-1.9c.1-1.3.1-2.9.1-4.7 0-1.7 0-3.1-.1-4.3h3.5c.9 0 1.6.2 2.2.6.5.4.8 1 .8 1.8zm-1.7.3c0-1-.7-1.5-2-1.5-.3 0-.7 0-1 .1.1.9.1 1.9.1 2.9h.4c1.6.1 2.5-.4 2.5-1.5zM165.2 2.6c0 1.1-.4 1.9-1.2 2.4-.8.5-1.8.8-3 .8h-.5c0 .9 0 2 .1 3.4h-1.9c.1-1.3.1-2.9.1-4.7 0-1.7 0-3.1-.1-4.3h3.5c.9 0 1.6.2 2.2.6.5.4.8 1 .8 1.8zm-1.8.3c0-1-.7-1.5-2-1.5-.3 0-.7 0-1 .1.1.9.1 1.9.1 2.9h.4c1.7.1 2.5-.4 2.5-1.5zM178.7 4.5c0 1.4-.4 2.6-1.3 3.5s-1.9 1.4-3.2 1.4c-1.2 0-2.2-.4-3-1.3-.8-.9-1.2-1.9-1.2-3.2 0-1.4.4-2.6 1.3-3.5.9-.9 1.9-1.4 3.2-1.4 1.2 0 2.2.4 3 1.3.8.8 1.2 1.9 1.2 3.2zm-1.9.2c0-1-.2-1.7-.7-2.3s-1.1-.9-1.8-.9-1.2.3-1.7.9c-.5.6-.7 1.4-.7 2.3 0 1 .2 1.7.7 2.3.5.6 1.1.9 1.8.9s1.2-.3 1.7-.9c.5-.6.7-1.4.7-2.3zM188.1 9.2h-1.7c0-.2-.6-1.2-1.9-3-1.3-1.9-2.1-3.2-2.3-3.9h-.1c.1 1 .2 1.9.2 2.7 0 1.1 0 2.5.1 4.1h-1.7c.1-1.4.1-3 .1-4.7 0-1.7 0-3.1-.1-4.3h2c0 .2.6 1.2 1.7 2.9 1.2 1.8 1.9 3 2.1 3.7h.1c-.1-1-.2-1.9-.2-2.8 0-1.2 0-2.5-.1-3.8h1.7v4.4c0 1.7 0 3.3.1 4.7z"/></g></g></svg>